<?xml version="1.0" encoding="utf-8"?>
<!-- Generator: Adobe Illustrator 17.0.0, SVG Export Plug-In . SVG Version: 6.00 Build 0)  -->
<!DOCTYPE svg PUBLIC "-//W3C//DTD SVG 1.1//EN" "http://www.w3.org/Graphics/SVG/1.1/DTD/svg11.dtd">
<svg version="1.1" id="Layer_1" xmlns="http://www.w3.org/2000/svg" xmlns:xlink="http://www.w3.org/1999/xlink" x="0px" y="0px"
	 width="130px" height="83px" viewBox="0 0 130 83" enable-background="new 0 0 130 83" xml:space="preserve">
<g display="none">
	<path display="inline" fill="#D2F0FF" stroke="#BABABA" stroke-miterlimit="10" d="M127.715,76.381c0,2.309-1.871,4.18-4.18,4.18
		H6.466c-2.309,0-4.181-1.871-4.181-4.18V6.35c0-2.311,1.872-4.182,4.181-4.182h117.068c2.309,0,4.18,1.872,4.18,4.182V76.381z"/>
	<g display="inline">
		<g>
			<polygon fill="#0066B2" points="60.006,53.14 53.88,53.14 57.709,29.605 63.837,29.605 			"/>
			<path fill="#0066B2" d="M48.725,29.605l-5.841,16.187l-0.692-3.485v0.001L40.13,31.724c0,0-0.248-2.119-2.906-2.119h-9.657
				l-0.113,0.399c0,0,2.953,0.613,6.41,2.69l5.323,20.446h6.384l9.749-23.535H48.725z"/>
			<path fill="#0066B2" d="M96.92,53.14h5.626l-4.905-23.535h-4.925c-2.275,0-2.83,1.753-2.83,1.753L80.748,53.14h6.386l1.278-3.495
				h7.789L96.92,53.14z M90.178,44.815l3.219-8.809l1.812,8.809H90.178z"/>
			<path fill="#0066B2" d="M81.227,35.264l0.874-5.054c0,0-2.699-1.025-5.51-1.025c-3.042,0-10.262,1.329-10.262,7.791
				c0,6.081,8.476,6.156,8.476,9.348c0,3.193-7.602,2.623-10.112,0.608l-0.911,5.283c0,0,2.735,1.33,6.917,1.33
				c4.18,0,10.49-2.166,10.49-8.057c0-6.119-8.552-6.69-8.552-9.35C72.638,33.478,78.605,33.819,81.227,35.264z"/>
		</g>
		<path fill="#F9A533" d="M42.191,42.308L40.13,31.724c0,0-0.248-2.119-2.906-2.119h-9.657l-0.113,0.399
			c0,0,4.643,0.962,9.094,4.565C40.806,38.014,42.191,42.308,42.191,42.308z"/>
	</g>
</g>
<g>
	<path fill="#FFEED4" stroke="#BABABA" stroke-miterlimit="10" d="M127.715,76.381c0,2.31-1.873,4.18-4.181,4.18H6.466
		c-2.308,0-4.181-1.87-4.181-4.18V6.35c0-2.31,1.874-4.182,4.181-4.182h117.068c2.308,0,4.181,1.872,4.181,4.182V76.381z"/>
	<g>
		<polygon fill-rule="evenodd" clip-rule="evenodd" fill="#FBB231" points="80.053,63.867 81.213,63.837 82.36,63.754 
			83.484,63.611 84.599,63.412 85.684,63.162 86.755,62.858 87.802,62.501 88.828,62.099 89.829,61.644 90.801,61.151 
			91.742,60.603 92.661,60.02 93.541,59.39 94.391,58.722 95.211,58.016 95.993,57.265 96.744,56.482 97.45,55.661 98.119,54.812 
			98.748,53.932 99.333,53.014 99.878,52.071 100.372,51.1 100.828,50.099 101.23,49.073 101.586,48.025 101.892,46.956 
			102.141,45.87 102.338,44.755 102.482,43.631 102.567,42.485 102.596,41.323 102.567,40.169 102.482,39.031 102.338,37.908 
			102.141,36.806 101.892,35.722 101.586,34.658 101.23,33.611 100.828,32.594 100.372,31.6 99.878,30.627 99.333,29.694 
			98.748,28.776 98.119,27.895 97.45,27.053 96.744,26.234 95.993,25.451 95.211,24.707 94.391,24.001 93.541,23.333 92.661,22.704 
			91.742,22.119 90.801,21.58 89.829,21.087 88.828,20.63 87.802,20.228 86.755,19.872 85.684,19.568 84.599,19.318 83.484,19.121 
			82.36,18.977 81.213,18.892 80.053,18.862 78.897,18.892 77.752,18.977 76.629,19.121 75.52,19.318 74.435,19.568 73.366,19.872 
			72.325,20.228 71.299,20.63 70.305,21.087 69.341,21.58 68.4,22.119 67.49,22.704 66.61,23.333 65.759,24.001 64.947,24.707 
			64.164,25.451 63.421,26.234 62.714,27.053 62.047,27.895 61.425,28.776 60.84,29.694 60.301,30.627 59.8,31.6 59.352,32.594 
			58.949,33.611 58.601,34.658 58.296,35.722 58.046,36.806 57.849,37.908 57.706,39.031 57.621,40.169 57.59,41.323 57.621,42.485 
			57.706,43.631 57.849,44.755 58.046,45.87 58.296,46.956 58.601,48.025 58.949,49.073 59.352,50.099 59.8,51.1 60.301,52.071 
			60.84,53.014 61.425,53.932 62.047,54.812 62.714,55.661 63.421,56.482 64.164,57.265 64.947,58.016 65.759,58.722 66.61,59.39 
			67.49,60.02 68.4,60.603 69.341,61.151 70.305,61.644 71.299,62.099 72.325,62.501 73.366,62.858 74.435,63.162 75.52,63.412 
			76.629,63.611 77.752,63.754 78.897,63.837 80.053,63.867 80.053,63.867 		"/>
		<polygon fill-rule="evenodd" clip-rule="evenodd" fill="#EC1C2E" points="49.948,63.867 51.1,63.837 52.247,63.754 53.371,63.611 
			54.479,63.412 55.564,63.162 56.634,62.858 57.675,62.501 58.699,62.099 59.693,61.644 60.658,61.151 61.599,60.603 62.509,60.02 
			63.391,59.39 64.241,58.722 65.052,58.016 65.835,57.265 66.579,56.482 67.285,55.661 67.952,54.812 68.574,53.932 69.16,53.014 
			69.699,52.071 70.199,51.1 70.646,50.099 71.05,49.073 71.398,48.025 71.702,46.956 71.953,45.87 72.15,44.755 72.294,43.631 
			72.377,42.485 72.408,41.323 72.377,40.169 72.294,39.031 72.15,37.908 71.953,36.806 71.702,35.722 71.398,34.658 71.05,33.611 
			70.646,32.594 70.199,31.6 69.699,30.627 69.16,29.694 68.574,28.776 67.952,27.895 67.285,27.053 66.579,26.234 65.835,25.451 
			65.052,24.707 64.241,24.001 63.391,23.333 62.509,22.704 61.599,22.119 60.658,21.58 59.693,21.087 58.699,20.63 57.675,20.228 
			56.634,19.872 55.564,19.568 54.479,19.318 53.371,19.121 52.247,18.977 51.1,18.892 49.948,18.862 48.785,18.892 47.64,18.977 
			46.516,19.121 45.399,19.318 44.314,19.568 43.244,19.872 42.196,20.228 41.172,20.63 40.17,21.087 39.198,21.58 38.257,22.119 
			37.338,22.704 36.458,23.333 35.608,24.001 34.788,24.707 34.007,25.451 33.255,26.234 32.549,27.053 31.881,27.895 
			31.251,28.776 30.667,29.694 30.12,30.627 29.627,31.6 29.171,32.594 28.769,33.611 28.413,34.658 28.109,35.722 27.858,36.806 
			27.661,37.908 27.516,39.031 27.433,40.169 27.402,41.323 27.433,42.485 27.516,43.631 27.661,44.755 27.858,45.87 28.109,46.956 
			28.413,48.025 28.769,49.073 29.171,50.099 29.627,51.1 30.12,52.071 30.667,53.014 31.251,53.932 31.881,54.812 32.549,55.661 
			33.255,56.482 34.007,57.265 34.788,58.016 35.608,58.722 36.458,59.39 37.338,60.02 38.257,60.603 39.198,61.151 40.17,61.644 
			41.172,62.099 42.196,62.501 43.244,62.858 44.314,63.162 45.399,63.412 46.516,63.611 47.64,63.754 48.785,63.837 49.948,63.867 
			49.948,63.867 		"/>
		<polygon fill-rule="evenodd" clip-rule="evenodd" fill="#FBB231" points="62.366,27.493 74.321,27.493 74.321,26.27 63.398,26.27 
			62.366,27.493 62.366,27.493 		"/>
		<polygon fill-rule="evenodd" clip-rule="evenodd" fill="#FBB231" points="60.574,30.21 74.321,30.21 74.321,28.987 61.295,28.987 
			60.574,30.21 60.574,30.21 		"/>
		<polygon fill-rule="evenodd" clip-rule="evenodd" fill="#FBB231" points="59.239,32.92 74.321,32.92 74.321,31.698 59.77,31.698 
			59.239,32.92 59.239,32.92 		"/>
		<polygon fill-rule="evenodd" clip-rule="evenodd" fill="#FBB231" points="58.32,35.638 74.321,35.638 74.321,34.416 
			58.699,34.416 58.32,35.638 58.32,35.638 		"/>
		<polygon fill-rule="evenodd" clip-rule="evenodd" fill="#FBB231" points="58.852,48.77 74.359,48.77 74.359,47.548 58.471,47.548 
			58.852,48.77 58.852,48.77 		"/>
		<polygon fill-rule="evenodd" clip-rule="evenodd" fill="#FBB231" points="59.997,51.487 74.359,51.487 74.359,50.265 
			59.428,50.265 59.997,51.487 59.997,51.487 		"/>
		<polygon fill-rule="evenodd" clip-rule="evenodd" fill="#FBB231" points="61.605,54.197 74.359,54.197 74.359,52.975 
			60.84,52.975 61.605,54.197 61.605,54.197 		"/>
		<polygon fill-rule="evenodd" clip-rule="evenodd" fill="#FBB231" points="63.823,56.915 74.359,56.915 74.359,55.685 
			62.753,55.685 63.823,56.915 63.823,56.915 		"/>
		<polygon fill-rule="evenodd" clip-rule="evenodd" fill="#FBB231" points="57.781,38.348 74.321,38.348 74.321,37.125 
			58.016,37.125 57.781,38.348 57.781,38.348 		"/>
		<polygon fill-rule="evenodd" clip-rule="evenodd" fill="#FBB231" points="67.861,46.061 74.169,46.061 74.169,44.837 
			68.089,44.837 67.861,46.061 67.861,46.061 		"/>
		<polygon fill-rule="evenodd" clip-rule="evenodd" fill="#FBB231" points="68.363,43.35 74.169,43.35 74.169,42.12 68.59,42.12 
			68.363,43.35 68.363,43.35 		"/>
		<polygon fill-rule="evenodd" clip-rule="evenodd" fill="#FBB231" points="57.363,42.12 59.004,42.12 59.004,43.35 57.44,43.35 
			57.363,42.12 57.363,42.12 		"/>
		<polygon fill-rule="evenodd" clip-rule="evenodd" fill="#FFFFFF" points="54.303,40.639 54.198,40.632 54.092,40.617 
			53.993,40.603 53.895,40.587 53.803,40.572 53.705,40.557 53.607,40.542 53.499,40.526 53.394,40.512 53.272,40.503 
			53.135,40.496 52.992,40.488 52.832,40.488 52.657,40.496 52.459,40.512 52.24,40.526 52.088,40.549 51.944,40.572 51.814,40.617 
			51.701,40.662 51.594,40.716 51.497,40.776 51.419,40.853 51.35,40.921 51.306,41.004 51.268,41.088 51.252,41.179 51.252,41.27 
			51.275,41.369 51.306,41.467 51.366,41.566 51.442,41.665 51.594,41.809 51.777,41.923 51.989,42.021 52.217,42.104 
			52.459,42.181 52.709,42.265 52.96,42.356 53.203,42.454 53.431,42.583 53.644,42.742 53.833,42.933 53.993,43.168 54.114,43.456 
			54.191,43.798 54.22,44.208 54.191,44.687 54.138,45.043 54.046,45.354 53.924,45.643 53.773,45.893 53.599,46.114 53.4,46.303 
			53.188,46.47 52.954,46.615 52.709,46.728 52.459,46.826 52.201,46.902 51.936,46.963 51.677,47.01 51.428,47.032 51.178,47.047 
			50.942,47.054 50.614,47.054 50.311,47.047 50.045,47.047 49.795,47.04 49.567,47.032 49.363,47.016 49.181,47.001 49.006,46.978 
			48.846,46.963 48.703,46.933 48.558,46.909 48.429,46.873 48.299,46.842 48.179,46.795 48.057,46.751 47.928,46.705 
			48.269,45.028 48.338,45.043 48.42,45.066 48.527,45.095 48.657,45.127 48.793,45.157 48.945,45.187 49.112,45.225 49.293,45.255 
			49.484,45.285 49.682,45.316 49.886,45.338 50.099,45.361 50.318,45.369 50.541,45.376 50.758,45.376 50.979,45.369 51.2,45.324 
			51.375,45.262 51.51,45.18 51.617,45.073 51.693,44.967 51.754,44.844 51.792,44.724 51.822,44.61 51.838,44.39 51.77,44.2 
			51.639,44.047 51.45,43.919 51.222,43.806 50.957,43.691 50.661,43.584 50.365,43.464 50.061,43.328 49.773,43.168 49.507,42.971 
			49.264,42.735 49.074,42.446 48.938,42.104 48.869,41.696 48.876,41.21 48.915,40.914 48.969,40.632 49.044,40.374 49.134,40.132 
			49.256,39.904 49.393,39.707 49.553,39.516 49.743,39.351 49.964,39.206 50.206,39.084 50.478,38.971 50.782,38.887 
			51.125,38.818 51.497,38.765 51.905,38.735 52.354,38.727 52.634,38.727 52.892,38.735 53.128,38.743 53.34,38.75 53.53,38.765 
			53.705,38.78 53.856,38.795 53.993,38.811 54.122,38.826 54.229,38.849 54.327,38.864 54.419,38.879 54.495,38.894 54.563,38.902 
			54.63,38.917 54.691,38.925 54.303,40.639 54.303,40.639 		"/>
		<polyline fill="none" stroke="#FFFFFF" stroke-width="0.216" stroke-miterlimit="2.6131" points="54.303,40.639 54.303,40.639 
			54.198,40.632 54.092,40.617 53.993,40.603 53.895,40.587 53.803,40.572 53.705,40.557 53.607,40.542 53.499,40.526 
			53.394,40.512 53.272,40.503 53.135,40.496 52.992,40.488 52.832,40.488 52.657,40.496 52.459,40.512 52.24,40.526 52.24,40.526 
			52.088,40.549 51.944,40.572 51.814,40.617 51.701,40.662 51.594,40.716 51.497,40.776 51.419,40.853 51.35,40.921 51.306,41.004 
			51.268,41.088 51.252,41.179 51.252,41.27 51.275,41.369 51.306,41.467 51.366,41.566 51.442,41.665 51.442,41.665 51.594,41.809 
			51.777,41.923 51.989,42.021 52.217,42.104 52.459,42.181 52.709,42.265 52.96,42.356 53.203,42.454 53.431,42.583 53.644,42.742 
			53.833,42.933 53.993,43.168 54.114,43.456 54.191,43.798 54.22,44.208 54.191,44.687 54.191,44.687 54.138,45.043 54.046,45.354 
			53.924,45.643 53.773,45.893 53.599,46.114 53.4,46.303 53.188,46.47 52.954,46.615 52.709,46.728 52.459,46.826 52.201,46.902 
			51.936,46.963 51.677,47.01 51.428,47.032 51.178,47.047 50.942,47.054 50.942,47.054 50.614,47.054 50.311,47.047 50.045,47.047 
			49.795,47.04 49.567,47.032 49.363,47.016 49.181,47.001 49.006,46.978 48.846,46.963 48.703,46.933 48.558,46.909 48.429,46.873 
			48.299,46.842 48.179,46.795 48.057,46.751 47.928,46.705 48.269,45.028 48.269,45.028 48.338,45.043 48.42,45.066 48.527,45.095 
			48.657,45.127 48.793,45.157 48.945,45.187 49.112,45.225 49.293,45.255 49.484,45.285 49.682,45.316 49.886,45.338 
			50.099,45.361 50.318,45.369 50.541,45.376 50.758,45.376 50.979,45.369 50.979,45.369 51.2,45.324 51.375,45.262 51.51,45.18 
			51.617,45.073 51.693,44.967 51.754,44.844 51.792,44.724 51.822,44.61 51.822,44.61 51.838,44.39 51.77,44.2 51.639,44.047 
			51.45,43.919 51.222,43.806 50.957,43.691 50.661,43.584 50.365,43.464 50.061,43.328 49.773,43.168 49.507,42.971 49.264,42.735 
			49.074,42.446 48.938,42.104 48.869,41.696 48.876,41.21 48.876,41.21 48.915,40.914 48.969,40.632 49.044,40.374 49.134,40.132 
			49.256,39.904 49.393,39.707 49.553,39.516 49.743,39.351 49.964,39.206 50.206,39.084 50.478,38.971 50.782,38.887 
			51.125,38.818 51.497,38.765 51.905,38.735 52.354,38.727 52.354,38.727 52.634,38.727 52.892,38.735 53.128,38.743 53.34,38.75 
			53.53,38.765 53.705,38.78 53.856,38.795 53.993,38.811 54.122,38.826 54.229,38.849 54.327,38.864 54.419,38.879 54.495,38.894 
			54.563,38.902 54.63,38.917 54.691,38.925 54.303,40.639 		"/>
		<polygon fill-rule="evenodd" clip-rule="evenodd" fill="#FFFFFF" points="56.103,37.05 58.207,37.05 57.895,38.887 59.163,38.887 
			58.889,40.603 57.552,40.564 56.825,44.799 56.817,44.952 56.854,45.081 56.931,45.18 57.03,45.262 57.167,45.316 57.318,45.361 
			57.484,45.391 57.667,45.408 57.833,45.4 57.985,45.385 58.123,45.361 58.244,45.331 58.343,45.301 58.411,45.278 58.457,45.262 
			58.471,45.255 58.207,46.667 58.153,46.705 58.1,46.735 58.046,46.766 57.994,46.795 57.94,46.818 57.879,46.842 57.812,46.864 
			57.743,46.887 57.667,46.909 57.59,46.925 57.5,46.94 57.41,46.956 57.311,46.972 57.196,46.986 57.074,47.001 56.945,47.016 
			56.368,47.016 56.064,46.993 55.799,46.963 55.557,46.918 55.352,46.864 55.176,46.795 55.033,46.721 54.904,46.629 54.805,46.53 
			54.729,46.424 54.675,46.295 54.638,46.165 54.615,46.022 54.608,45.862 54.608,45.696 54.63,45.521 54.654,45.331 56.103,37.05 
			56.103,37.05 		"/>
		<polyline fill="none" stroke="#FFFFFF" stroke-width="0.216" stroke-miterlimit="2.6131" points="56.103,37.05 58.207,37.05 
			57.895,38.887 59.163,38.887 58.889,40.603 57.552,40.564 56.825,44.799 56.825,44.799 56.817,44.952 56.854,45.081 56.931,45.18 
			57.03,45.262 57.167,45.316 57.318,45.361 57.484,45.391 57.667,45.408 57.667,45.408 57.833,45.4 57.985,45.385 58.123,45.361 
			58.244,45.331 58.343,45.301 58.411,45.278 58.457,45.262 58.471,45.255 58.207,46.667 58.207,46.667 58.153,46.705 58.1,46.735 
			58.046,46.766 57.994,46.795 57.94,46.818 57.879,46.842 57.812,46.864 57.743,46.887 57.667,46.909 57.59,46.925 57.5,46.94 
			57.41,46.956 57.311,46.972 57.196,46.986 57.074,47.001 56.945,47.016 56.368,47.016 56.368,47.016 56.064,46.993 55.799,46.963 
			55.557,46.918 55.352,46.864 55.176,46.795 55.033,46.721 54.904,46.629 54.805,46.53 54.729,46.424 54.675,46.295 54.638,46.165 
			54.615,46.022 54.608,45.862 54.608,45.696 54.63,45.521 54.654,45.331 56.103,37.05 		"/>
		<polyline fill="none" stroke="#FFFFFF" stroke-width="0.216" stroke-miterlimit="2.6131" points="60.84,43.464 60.84,43.464 
			60.817,43.592 60.81,43.728 60.825,43.873 60.855,44.018 60.908,44.162 60.97,44.3 61.053,44.443 61.143,44.572 61.25,44.702 
			61.363,44.816 61.485,44.929 61.621,45.02 61.759,45.104 61.91,45.171 62.062,45.225 62.214,45.255 62.214,45.255 62.411,45.285 
			62.601,45.309 62.799,45.331 62.996,45.347 63.193,45.354 63.398,45.354 63.595,45.347 63.8,45.331 64.005,45.301 64.211,45.262 
			64.423,45.217 64.628,45.149 64.841,45.066 65.06,44.974 65.273,44.853 65.493,44.724 65.189,46.592 65.189,46.592 65.067,46.652 
			64.947,46.713 64.825,46.758 64.712,46.805 64.598,46.842 64.475,46.88 64.354,46.909 64.225,46.933 64.088,46.956 63.937,46.972 
			63.778,46.986 63.603,47.001 63.405,47.01 63.202,47.01 62.965,47.016 62.714,47.016 62.714,47.016 62.343,47.01 61.964,46.972 
			61.583,46.918 61.204,46.826 60.833,46.713 60.477,46.568 60.134,46.379 59.815,46.158 59.519,45.9 59.262,45.589 59.042,45.24 
			58.858,44.837 58.73,44.39 58.647,43.88 58.624,43.319 58.662,42.697 58.662,42.697 58.692,42.454 58.737,42.173 58.798,41.878 
			58.881,41.558 58.996,41.233 59.132,40.906 59.306,40.572 59.519,40.253 59.761,39.949 60.057,39.661 60.392,39.403 
			60.771,39.176 61.211,38.985 61.706,38.849 62.25,38.758 62.867,38.727 62.867,38.727 63.163,38.735 63.474,38.765 63.786,38.818 
			64.097,38.894 64.4,39.009 64.697,39.145 64.97,39.327 65.22,39.539 65.447,39.798 65.638,40.102 65.789,40.451 65.896,40.853 
			65.957,41.307 65.964,41.823 65.911,42.4 65.796,43.039 65.759,43.502 60.226,43.502 60.574,42.006 63.899,42.006 63.899,42.006 
			63.915,41.817 63.906,41.635 63.89,41.467 63.861,41.316 63.808,41.172 63.755,41.041 63.679,40.928 63.603,40.822 63.513,40.731 
			63.413,40.655 63.299,40.587 63.185,40.526 63.064,40.481 62.942,40.451 62.813,40.428 62.677,40.412 62.677,40.412 62.532,40.42 
			62.396,40.443 62.267,40.474 62.138,40.519 62.008,40.579 61.896,40.648 61.78,40.731 61.683,40.822 61.583,40.928 61.492,41.041 
			61.41,41.164 61.341,41.294 61.272,41.43 61.219,41.582 61.174,41.733 61.143,41.893 60.84,43.464 		"/>
		<polygon fill-rule="evenodd" clip-rule="evenodd" fill="#FFFFFF" points="78.943,39.342 78.845,39.29 78.747,39.243 78.639,39.19 
			78.526,39.137 78.411,39.092 78.284,39.046 78.154,39 78.019,38.955 77.874,38.917 77.728,38.887 77.57,38.856 77.411,38.833 
			77.236,38.818 77.062,38.803 76.879,38.803 76.689,38.803 76.5,38.803 76.302,38.818 76.097,38.842 75.885,38.879 75.672,38.939 
			75.461,39.023 75.248,39.13 75.034,39.266 74.83,39.433 74.631,39.63 74.441,39.874 74.261,40.154 74.093,40.488 73.934,40.867 
			73.79,41.294 73.669,41.779 73.622,42.051 73.593,42.317 73.577,42.583 73.586,42.842 73.607,43.1 73.66,43.343 73.729,43.57 
			73.812,43.798 73.926,44.003 74.062,44.2 74.223,44.374 74.405,44.534 74.609,44.671 74.844,44.785 75.103,44.883 75.391,44.952 
			75.49,44.974 75.605,44.997 75.742,45.013 75.893,45.028 76.059,45.043 76.234,45.043 76.423,45.043 76.614,45.028 76.811,45.004 
			77.008,44.967 77.198,44.914 77.388,44.853 77.577,44.769 77.752,44.671 77.911,44.55 78.063,44.413 77.723,46.44 77.676,46.478 
			77.631,46.523 77.57,46.577 77.503,46.621 77.419,46.682 77.312,46.735 77.19,46.789 77.054,46.833 76.879,46.887 76.682,46.925 
			76.455,46.956 76.188,46.986 75.893,47.001 75.55,47.01 75.165,47.001 74.738,46.978 74.389,46.94 74.04,46.864 73.691,46.751 
			73.342,46.599 73.008,46.417 72.688,46.188 72.386,45.923 72.104,45.621 71.853,45.278 71.642,44.899 71.46,44.474 71.324,44.011 
			71.232,43.502 71.201,42.963 71.217,42.371 71.299,41.741 71.361,41.43 71.428,41.126 71.505,40.83 71.582,40.549 71.663,40.283 
			71.762,40.018 71.862,39.768 71.968,39.532 72.083,39.297 72.196,39.076 72.325,38.864 72.461,38.667 72.598,38.477 
			72.749,38.295 72.901,38.128 73.061,37.969 73.235,37.816 73.41,37.672 73.593,37.543 73.783,37.421 73.987,37.308 74.192,37.21 
			74.405,37.119 74.625,37.034 74.861,36.958 75.094,36.898 75.338,36.844 75.597,36.8 75.854,36.761 76.128,36.731 76.401,36.717 
			76.689,36.708 76.934,36.717 77.168,36.731 77.396,36.754 77.623,36.785 77.836,36.814 78.04,36.86 78.238,36.898 78.42,36.943 
			78.595,36.989 78.747,37.034 78.892,37.081 79.012,37.125 79.119,37.163 79.21,37.194 79.278,37.225 79.324,37.24 78.943,39.342 
			78.943,39.342 		"/>
		<polyline fill="none" stroke="#FFFFFF" stroke-width="0.216" stroke-miterlimit="2.6131" points="78.943,39.342 78.943,39.342 
			78.845,39.29 78.747,39.243 78.639,39.19 78.526,39.137 78.411,39.092 78.284,39.046 78.154,39 78.019,38.955 77.874,38.917 
			77.728,38.887 77.57,38.856 77.411,38.833 77.236,38.818 77.062,38.803 76.879,38.803 76.689,38.803 76.689,38.803 76.5,38.803 
			76.302,38.818 76.097,38.842 75.885,38.879 75.672,38.939 75.461,39.023 75.248,39.13 75.034,39.266 74.83,39.433 74.631,39.63 
			74.441,39.874 74.261,40.154 74.093,40.488 73.934,40.867 73.79,41.294 73.669,41.779 73.669,41.779 73.622,42.051 73.593,42.317 
			73.577,42.583 73.586,42.842 73.607,43.1 73.66,43.343 73.729,43.57 73.812,43.798 73.926,44.003 74.062,44.2 74.223,44.374 
			74.405,44.534 74.609,44.671 74.844,44.785 75.103,44.883 75.391,44.952 75.391,44.952 75.49,44.974 75.605,44.997 75.742,45.013 
			75.893,45.028 76.059,45.043 76.234,45.043 76.423,45.043 76.614,45.028 76.811,45.004 77.008,44.967 77.198,44.914 
			77.388,44.853 77.577,44.769 77.752,44.671 77.911,44.55 78.063,44.413 77.723,46.44 77.723,46.44 77.676,46.478 77.631,46.523 
			77.57,46.577 77.503,46.621 77.419,46.682 77.312,46.735 77.19,46.789 77.054,46.833 76.879,46.887 76.682,46.925 76.455,46.956 
			76.188,46.986 75.893,47.001 75.55,47.01 75.165,47.001 74.738,46.978 74.738,46.978 74.389,46.94 74.04,46.864 73.691,46.751 
			73.342,46.599 73.008,46.417 72.688,46.188 72.386,45.923 72.104,45.621 71.853,45.278 71.642,44.899 71.46,44.474 71.324,44.011 
			71.232,43.502 71.201,42.963 71.217,42.371 71.299,41.741 71.299,41.741 71.361,41.43 71.428,41.126 71.505,40.83 71.582,40.549 
			71.663,40.283 71.762,40.018 71.862,39.768 71.968,39.532 72.083,39.297 72.196,39.076 72.325,38.864 72.461,38.667 
			72.598,38.477 72.749,38.295 72.901,38.128 73.061,37.969 73.235,37.816 73.41,37.672 73.593,37.543 73.783,37.421 73.987,37.308 
			74.192,37.21 74.405,37.119 74.625,37.034 74.861,36.958 75.094,36.898 75.338,36.844 75.597,36.8 75.854,36.761 76.128,36.731 
			76.401,36.717 76.689,36.708 76.689,36.708 76.934,36.717 77.168,36.731 77.396,36.754 77.623,36.785 77.836,36.814 78.04,36.86 
			78.238,36.898 78.42,36.943 78.595,36.989 78.747,37.034 78.892,37.081 79.012,37.125 79.119,37.163 79.21,37.194 79.278,37.225 
			79.324,37.24 78.943,39.342 		"/>
		<polygon fill-rule="evenodd" clip-rule="evenodd" fill="#FFFFFF" points="97.632,47.016 95.529,47.016 95.682,46.174 
			95.682,46.098 95.56,46.25 95.43,46.386 95.302,46.507 95.165,46.615 95.029,46.713 94.892,46.795 94.755,46.864 94.611,46.933 
			94.467,46.986 94.323,47.024 94.178,47.062 94.026,47.083 93.875,47.107 93.731,47.123 93.58,47.13 93.428,47.13 93.033,47.1 
			92.669,47.016 92.334,46.887 92.03,46.713 91.757,46.492 91.514,46.235 91.301,45.953 91.119,45.635 90.969,45.292 90.847,44.937 
			90.763,44.565 90.702,44.177 90.68,43.79 90.687,43.396 90.724,43.009 90.793,42.622 90.907,42.173 91.044,41.749 91.204,41.361 
			91.393,40.997 91.589,40.655 91.818,40.351 92.052,40.079 92.304,39.828 92.569,39.607 92.85,39.418 93.139,39.251 93.428,39.122 
			93.731,39.015 94.034,38.948 94.337,38.902 94.648,38.887 94.87,38.894 95.082,38.917 95.28,38.955 95.461,39.009 95.636,39.07 
			95.789,39.137 95.94,39.221 96.077,39.305 96.198,39.394 96.311,39.494 96.41,39.593 96.502,39.691 96.577,39.79 96.646,39.889 
			96.707,39.98 96.752,40.071 96.752,40.071 97.284,37.088 99.348,37.088 97.632,47.016 97.632,47.016 		"/>
		<polyline fill="none" stroke="#FFFFFF" stroke-width="0.216" stroke-miterlimit="2.6131" points="97.632,47.016 95.529,47.016 
			95.682,46.174 95.682,46.098 95.682,46.098 95.56,46.25 95.43,46.386 95.302,46.507 95.165,46.615 95.029,46.713 94.892,46.795 
			94.755,46.864 94.611,46.933 94.467,46.986 94.323,47.024 94.178,47.062 94.026,47.083 93.875,47.107 93.731,47.123 93.58,47.13 
			93.428,47.13 93.428,47.13 93.033,47.1 92.669,47.016 92.334,46.887 92.03,46.713 91.757,46.492 91.514,46.235 91.301,45.953 
			91.119,45.635 90.969,45.292 90.847,44.937 90.763,44.565 90.702,44.177 90.68,43.79 90.687,43.396 90.724,43.009 90.793,42.622 
			90.793,42.622 90.907,42.173 91.044,41.749 91.204,41.361 91.393,40.997 91.589,40.655 91.818,40.351 92.052,40.079 
			92.304,39.828 92.569,39.607 92.85,39.418 93.139,39.251 93.428,39.122 93.731,39.015 94.034,38.948 94.337,38.902 94.648,38.887 
			94.648,38.887 94.87,38.894 95.082,38.917 95.28,38.955 95.461,39.009 95.636,39.07 95.789,39.137 95.94,39.221 96.077,39.305 
			96.198,39.394 96.311,39.494 96.41,39.593 96.502,39.691 96.577,39.79 96.646,39.889 96.707,39.98 96.752,40.071 96.752,40.071 
			97.284,37.088 99.348,37.088 97.632,47.016 		"/>
		<polygon fill-rule="evenodd" clip-rule="evenodd" fill="#FBB231" points="94.193,45.18 94.406,45.165 94.603,45.119 
			94.786,45.066 94.961,44.982 95.12,44.892 95.271,44.777 95.416,44.649 95.545,44.511 95.658,44.359 95.765,44.192 95.863,44.018 
			95.948,43.836 96.023,43.645 96.084,43.449 96.137,43.244 96.175,43.039 96.212,42.827 96.236,42.607 96.236,42.4 96.229,42.189 
			96.206,41.992 96.175,41.801 96.122,41.619 96.061,41.445 95.985,41.294 95.894,41.149 95.796,41.026 95.682,40.921 95.553,40.83 
			95.416,40.769 95.271,40.731 95.113,40.716 94.907,40.731 94.717,40.762 94.542,40.822 94.368,40.898 94.217,40.997 
			94.064,41.119 93.936,41.248 93.806,41.392 93.693,41.558 93.586,41.733 93.486,41.915 93.404,42.112 93.328,42.317 
			93.268,42.523 93.207,42.742 93.162,42.963 93.123,43.297 93.139,43.662 93.191,44.033 93.291,44.39 93.442,44.702 93.64,44.952 
			93.89,45.119 94.193,45.18 94.193,45.18 		"/>
		<polygon fill-rule="evenodd" clip-rule="evenodd" fill="#FFFFFF" points="47.58,45.331 47.275,47.016 45.362,47.016 
			45.415,46.705 45.455,46.424 45.483,46.212 45.514,46.098 45.408,46.219 45.286,46.341 45.143,46.455 44.982,46.561 
			44.801,46.667 44.611,46.758 44.413,46.849 44.208,46.925 43.987,46.993 43.769,47.047 43.547,47.093 43.321,47.123 43.1,47.138 
			42.881,47.145 42.667,47.123 42.462,47.093 42.196,47.024 41.954,46.948 41.741,46.849 41.551,46.735 41.385,46.615 
			41.234,46.478 41.111,46.333 41.005,46.182 40.915,46.022 40.838,45.854 40.778,45.688 40.732,45.521 40.701,45.347 
			40.679,45.171 40.664,45.004 40.664,44.837 40.686,44.541 40.732,44.261 40.808,43.995 40.907,43.737 41.028,43.494 
			41.164,43.274 41.324,43.062 41.506,42.872 41.697,42.697 41.909,42.537 42.129,42.394 42.356,42.271 42.599,42.167 42.85,42.082 
			43.108,42.014 43.374,41.968 43.388,41.968 43.426,41.96 43.48,41.953 43.563,41.946 43.654,41.931 43.76,41.923 43.874,41.908 
			44.003,41.893 44.132,41.878 44.262,41.863 44.399,41.854 44.52,41.839 44.642,41.832 44.754,41.823 44.862,41.817 44.944,41.817 
			45.12,41.817 45.302,41.823 45.468,41.832 45.635,41.832 45.772,41.839 45.879,41.847 45.954,41.854 45.977,41.854 45.992,41.801 
			46.038,41.665 46.075,41.505 46.09,41.361 46.06,41.195 45.992,41.041 45.901,40.906 45.779,40.791 45.635,40.694 45.476,40.625 
			45.293,40.579 45.097,40.564 44.884,40.557 44.655,40.549 44.42,40.549 44.178,40.557 43.928,40.572 43.684,40.594 43.442,40.617 
			43.207,40.648 42.978,40.678 42.758,40.716 42.561,40.753 42.379,40.791 42.212,40.838 42.075,40.883 41.969,40.936 
			41.885,40.981 42.424,39.152 42.592,39.084 42.758,39.023 42.941,38.971 43.123,38.932 43.306,38.894 43.503,38.864 43.7,38.833 
			43.905,38.818 44.117,38.803 44.337,38.795 44.565,38.787 44.801,38.787 45.043,38.787 45.293,38.787 45.56,38.795 45.826,38.803 
			46.038,38.818 46.266,38.856 46.5,38.91 46.743,38.978 46.979,39.07 47.207,39.176 47.434,39.305 47.648,39.448 47.835,39.616 
			48.004,39.798 48.157,40.002 48.269,40.23 48.346,40.474 48.39,40.731 48.39,41.02 48.346,41.323 47.58,45.331 47.58,45.331 		"/>
		<polyline fill="none" stroke="#FFFFFF" stroke-width="0.216" stroke-miterlimit="2.6131" points="47.58,45.331 47.275,47.016 
			45.362,47.016 45.362,47.016 45.415,46.705 45.455,46.424 45.483,46.212 45.514,46.098 45.514,46.098 45.408,46.219 
			45.286,46.341 45.143,46.455 44.982,46.561 44.801,46.667 44.611,46.758 44.413,46.849 44.208,46.925 43.987,46.993 
			43.769,47.047 43.547,47.093 43.321,47.123 43.1,47.138 42.881,47.145 42.667,47.123 42.462,47.093 42.462,47.093 42.196,47.024 
			41.954,46.948 41.741,46.849 41.551,46.735 41.385,46.615 41.234,46.478 41.111,46.333 41.005,46.182 40.915,46.022 
			40.838,45.854 40.778,45.688 40.732,45.521 40.701,45.347 40.679,45.171 40.664,45.004 40.664,44.837 40.664,44.837 
			40.686,44.541 40.732,44.261 40.808,43.995 40.907,43.737 41.028,43.494 41.164,43.274 41.324,43.062 41.506,42.872 
			41.697,42.697 41.909,42.537 42.129,42.394 42.356,42.271 42.599,42.167 42.85,42.082 43.108,42.014 43.374,41.968 43.374,41.968 
			43.388,41.968 43.426,41.96 43.48,41.953 43.563,41.946 43.654,41.931 43.76,41.923 43.874,41.908 44.003,41.893 44.132,41.878 
			44.262,41.863 44.399,41.854 44.52,41.839 44.642,41.832 44.754,41.823 44.862,41.817 44.944,41.817 44.944,41.817 45.12,41.817 
			45.302,41.823 45.468,41.832 45.635,41.832 45.772,41.839 45.879,41.847 45.954,41.854 45.977,41.854 45.977,41.854 
			45.992,41.801 46.038,41.665 46.075,41.505 46.09,41.361 46.09,41.361 46.06,41.195 45.992,41.041 45.901,40.906 45.779,40.791 
			45.635,40.694 45.476,40.625 45.293,40.579 45.097,40.564 45.097,40.564 44.884,40.557 44.655,40.549 44.42,40.549 44.178,40.557 
			43.928,40.572 43.684,40.594 43.442,40.617 43.207,40.648 42.978,40.678 42.758,40.716 42.561,40.753 42.379,40.791 
			42.212,40.838 42.075,40.883 41.969,40.936 41.885,40.981 42.424,39.152 42.424,39.152 42.592,39.084 42.758,39.023 
			42.941,38.971 43.123,38.932 43.306,38.894 43.503,38.864 43.7,38.833 43.905,38.818 44.117,38.803 44.337,38.795 44.565,38.787 
			44.801,38.787 45.043,38.787 45.293,38.787 45.56,38.795 45.826,38.803 45.826,38.803 46.038,38.818 46.266,38.856 46.5,38.91 
			46.743,38.978 46.979,39.07 47.207,39.176 47.434,39.305 47.648,39.448 47.835,39.616 48.004,39.798 48.157,40.002 48.269,40.23 
			48.346,40.474 48.39,40.731 48.39,41.02 48.346,41.323 47.58,45.331 		"/>
		<polygon fill-rule="evenodd" clip-rule="evenodd" fill="#EC1C2E" points="45.75,43.35 45.742,43.312 45.711,43.274 45.666,43.251 
			45.59,43.236 45.506,43.222 45.408,43.213 45.293,43.213 45.179,43.213 45.059,43.222 44.93,43.236 44.809,43.251 44.687,43.267 
			44.573,43.282 44.466,43.304 44.376,43.328 44.292,43.35 44.239,43.365 44.178,43.389 44.095,43.418 44.01,43.456 43.912,43.502 
			43.813,43.556 43.708,43.608 43.609,43.669 43.503,43.745 43.404,43.82 43.312,43.912 43.229,44.003 43.153,44.101 43.1,44.208 
			43.056,44.329 43.031,44.451 43.025,44.709 43.062,44.914 43.138,45.066 43.237,45.18 43.351,45.255 43.48,45.301 43.602,45.324 
			43.723,45.331 43.95,45.324 44.156,45.301 44.353,45.27 44.528,45.225 44.679,45.171 44.823,45.104 44.952,45.035 45.067,44.952 
			45.166,44.875 45.255,44.785 45.332,44.702 45.393,44.61 45.445,44.519 45.493,44.428 45.53,44.344 45.551,44.261 45.613,44.041 
			45.666,43.79 45.711,43.548 45.75,43.35 45.75,43.35 		"/>
		<polygon fill-rule="evenodd" clip-rule="evenodd" fill="#FFFFFF" points="31.607,47.016 29.544,47.016 31.267,37.05 34.856,37.05 
			35.199,42.963 37.681,37.05 41.431,37.05 39.669,47.016 37.604,47.016 38.91,39.57 38.828,39.57 35.737,47.016 33.408,47.016 
			33.392,46.705 33.339,45.877 33.271,44.702 33.194,43.35 33.118,41.992 33.05,40.801 32.997,39.935 32.981,39.57 32.959,39.57 
			32.914,39.57 32.868,39.57 32.868,39.57 31.607,47.016 31.607,47.016 		"/>
		<polyline fill="none" stroke="#FFFFFF" stroke-width="0.216" stroke-miterlimit="2.6131" points="31.607,47.016 29.544,47.016 
			31.267,37.05 34.856,37.05 35.199,42.963 37.681,37.05 41.431,37.05 39.669,47.016 37.604,47.016 38.91,39.57 38.828,39.57 
			35.737,47.016 33.408,47.016 33.408,47.016 33.392,46.705 33.339,45.877 33.271,44.702 33.194,43.35 33.118,41.992 33.05,40.801 
			32.997,39.935 32.981,39.57 32.981,39.57 32.959,39.57 32.914,39.57 32.868,39.57 32.868,39.57 31.607,47.016 		"/>
		<polygon fill-rule="evenodd" clip-rule="evenodd" fill="#FFFFFF" points="85.253,45.331 84.941,47.016 83.036,47.016 
			83.05,46.705 83.058,46.432 83.058,46.228 83.073,46.137 82.975,46.25 82.86,46.364 82.725,46.47 82.572,46.577 82.414,46.675 
			82.231,46.766 82.04,46.857 81.851,46.933 81.646,46.993 81.433,47.054 81.222,47.093 81.009,47.123 80.788,47.138 80.577,47.145 
			80.371,47.123 80.165,47.093 79.893,47.024 79.651,46.948 79.437,46.849 79.239,46.735 79.073,46.615 78.928,46.478 
			78.807,46.333 78.702,46.182 78.61,46.022 78.541,45.854 78.481,45.688 78.443,45.521 78.411,45.347 78.39,45.171 78.373,45.004 
			78.373,44.837 78.39,44.541 78.436,44.261 78.503,43.995 78.603,43.737 78.716,43.494 78.86,43.274 79.02,43.062 79.194,42.872 
			79.392,42.697 79.597,42.537 79.817,42.394 80.053,42.271 80.288,42.167 80.538,42.082 80.788,42.014 81.046,41.968 
			81.062,41.968 81.099,41.96 81.153,41.953 81.229,41.946 81.328,41.931 81.433,41.923 81.548,41.908 81.668,41.893 81.798,41.878 
			81.935,41.863 82.064,41.854 82.193,41.839 82.314,41.832 82.42,41.823 82.527,41.817 82.61,41.817 82.793,41.817 82.975,41.823 
			83.149,41.832 83.316,41.832 83.461,41.839 83.582,41.847 83.65,41.854 83.681,41.854 83.697,41.801 83.719,41.665 83.741,41.505 
			83.756,41.361 83.727,41.195 83.666,41.041 83.568,40.906 83.452,40.791 83.316,40.694 83.157,40.625 82.99,40.579 82.807,40.564 
			82.594,40.557 82.368,40.549 82.132,40.549 81.888,40.557 81.639,40.572 81.396,40.594 81.153,40.617 80.917,40.648 
			80.689,40.678 80.47,40.716 80.272,40.753 80.09,40.791 79.923,40.838 79.787,40.883 79.679,40.936 79.597,40.981 80.128,39.152 
			80.294,39.084 80.47,39.023 80.645,38.971 80.826,38.932 81.016,38.894 81.207,38.864 81.402,38.833 81.609,38.818 81.82,38.803 
			82.04,38.795 82.261,38.787 82.497,38.787 82.731,38.787 82.975,38.787 83.233,38.795 83.491,38.803 83.704,38.818 83.931,38.856 
			84.166,38.91 84.41,38.978 84.646,39.07 84.879,39.176 85.107,39.305 85.32,39.448 85.511,39.616 85.684,39.798 85.836,40.002 
			85.95,40.23 86.034,40.474 86.088,40.731 86.088,41.02 86.049,41.323 85.253,45.331 85.253,45.331 		"/>
		<polygon fill-rule="evenodd" clip-rule="evenodd" fill="#FFFFFF" points="84.941,47.07 84.986,47.024 85.297,45.338 
			85.206,45.324 84.895,47.01 84.941,46.963 84.941,47.07 84.978,47.062 84.986,47.024 84.941,47.07 84.941,47.07 		"/>
		<polygon fill-rule="evenodd" clip-rule="evenodd" fill="#FFFFFF" points="82.99,47.016 83.036,47.07 84.941,47.07 84.941,46.963 
			83.036,46.963 83.082,47.016 82.99,47.016 82.983,47.07 83.036,47.07 82.99,47.016 82.99,47.016 		"/>
		<polygon fill-rule="evenodd" clip-rule="evenodd" fill="#FFFFFF" points="83.112,46.165 83.043,46.105 83.013,46.228 
			83.004,46.432 83.004,46.705 82.99,47.016 83.082,47.016 83.096,46.705 83.112,46.432 83.104,46.228 83.104,46.165 83.036,46.105 
			83.112,46.165 83.112,46.165 		"/>
		<polygon fill-rule="evenodd" clip-rule="evenodd" fill="#FFFFFF" points="80.159,47.138 80.159,47.138 80.371,47.168 
			80.577,47.19 80.788,47.184 81.009,47.168 81.229,47.138 81.441,47.1 81.654,47.04 81.866,46.978 82.056,46.902 82.253,46.812 
			82.437,46.721 82.594,46.615 82.754,46.507 82.89,46.402 83.013,46.28 83.112,46.165 83.036,46.105 82.937,46.219 82.831,46.326 
			82.693,46.432 82.55,46.539 82.39,46.629 82.208,46.721 82.026,46.812 81.836,46.887 81.639,46.948 81.426,47.01 81.213,47.047 
			81.009,47.077 80.788,47.093 80.577,47.1 80.371,47.077 80.174,47.047 80.174,47.047 80.159,47.138 80.159,47.138 		"/>
		<polygon fill-rule="evenodd" clip-rule="evenodd" fill="#FFFFFF" points="78.322,44.837 78.322,44.837 78.329,45.004 
			78.344,45.171 78.368,45.354 78.398,45.529 78.436,45.696 78.497,45.87 78.564,46.044 78.664,46.204 78.769,46.364 78.892,46.507 
			79.043,46.652 79.217,46.773 79.415,46.895 79.636,46.993 79.885,47.07 80.159,47.138 80.174,47.047 79.9,46.978 79.665,46.902 
			79.46,46.805 79.262,46.697 79.103,46.577 78.966,46.447 78.845,46.303 78.738,46.158 78.656,45.999 78.588,45.84 78.526,45.682 
			78.489,45.514 78.459,45.338 78.436,45.171 78.42,45.004 78.428,44.837 78.428,44.837 78.322,44.837 78.322,44.837 		"/>
		<polygon fill-rule="evenodd" clip-rule="evenodd" fill="#FFFFFF" points="81.046,41.923 81.046,41.923 80.781,41.968 
			80.523,42.037 80.272,42.12 80.03,42.227 79.794,42.348 79.567,42.5 79.361,42.66 79.164,42.842 78.982,43.031 78.822,43.244 
			78.67,43.472 78.557,43.723 78.459,43.98 78.39,44.253 78.344,44.541 78.322,44.837 78.428,44.837 78.436,44.541 78.481,44.269 
			78.549,44.011 78.648,43.752 78.761,43.517 78.897,43.304 79.058,43.092 79.224,42.903 79.421,42.735 79.627,42.575 
			79.838,42.439 80.076,42.317 80.302,42.212 80.553,42.128 80.796,42.06 81.046,42.014 81.046,42.014 81.046,41.923 81.046,41.923 
					"/>
		<polygon fill-rule="evenodd" clip-rule="evenodd" fill="#FFFFFF" points="82.61,41.763 82.61,41.763 82.527,41.763 82.42,41.779 
			82.314,41.788 82.193,41.794 82.064,41.809 81.935,41.817 81.798,41.832 81.668,41.847 81.548,41.863 81.433,41.878 
			81.328,41.885 81.229,41.901 81.153,41.908 81.092,41.915 81.062,41.923 81.046,41.923 81.046,42.014 81.062,42.014 
			81.107,42.006 81.153,41.999 81.229,41.992 81.328,41.977 81.433,41.968 81.548,41.953 81.668,41.937 81.798,41.923 
			81.935,41.908 82.064,41.901 82.193,41.885 82.314,41.878 82.42,41.87 82.527,41.87 82.61,41.87 82.61,41.87 82.61,41.763 
			82.61,41.763 		"/>
		<polygon fill-rule="evenodd" clip-rule="evenodd" fill="#FFFFFF" points="83.635,41.847 83.681,41.809 83.65,41.809 
			83.582,41.801 83.461,41.794 83.316,41.779 83.149,41.779 82.975,41.779 82.793,41.763 82.61,41.763 82.61,41.87 82.793,41.87 
			82.975,41.87 83.149,41.885 83.316,41.885 83.461,41.885 83.582,41.893 83.65,41.901 83.681,41.901 83.727,41.863 83.681,41.901 
			83.719,41.908 83.727,41.863 83.635,41.847 83.635,41.847 		"/>
		<polygon fill-rule="evenodd" clip-rule="evenodd" fill="#FFFFFF" points="83.711,41.361 83.704,41.361 83.697,41.505 
			83.672,41.657 83.65,41.794 83.635,41.847 83.727,41.863 83.741,41.809 83.764,41.671 83.786,41.505 83.809,41.361 83.802,41.361 
			83.711,41.361 83.711,41.361 		"/>
		<polygon fill-rule="evenodd" clip-rule="evenodd" fill="#FFFFFF" points="82.807,40.61 82.807,40.617 82.983,40.625 
			83.142,40.671 83.293,40.739 83.422,40.83 83.528,40.936 83.619,41.065 83.681,41.202 83.711,41.361 83.802,41.361 83.771,41.187 
			83.711,41.02 83.604,40.876 83.484,40.753 83.339,40.648 83.172,40.579 82.997,40.535 82.807,40.512 82.807,40.519 82.807,40.61 
			82.807,40.61 		"/>
		<polygon fill-rule="evenodd" clip-rule="evenodd" fill="#FFFFFF" points="79.551,40.975 79.627,41.02 79.703,40.981 
			79.801,40.928 79.932,40.883 80.097,40.838 80.281,40.801 80.477,40.762 80.697,40.724 80.917,40.694 81.153,40.662 
			81.396,40.639 81.639,40.617 81.888,40.603 82.132,40.603 82.368,40.603 82.594,40.603 82.807,40.61 82.807,40.519 82.594,40.512 
			82.368,40.496 82.132,40.496 81.888,40.512 81.639,40.526 81.396,40.549 81.153,40.572 80.917,40.603 80.682,40.632 
			80.461,40.671 80.265,40.709 80.082,40.747 79.915,40.791 79.771,40.838 79.658,40.89 79.567,40.944 79.643,40.989 79.551,40.975 
			79.551,40.975 		"/>
		<polygon fill-rule="evenodd" clip-rule="evenodd" fill="#FFFFFF" points="80.114,39.106 80.082,39.145 79.551,40.975 
			79.643,40.989 80.174,39.159 80.143,39.198 80.114,39.106 80.09,39.114 80.082,39.145 80.114,39.106 80.114,39.106 		"/>
		<polygon fill-rule="evenodd" clip-rule="evenodd" fill="#FFFFFF" points="83.491,38.758 83.491,38.758 83.233,38.743 
			82.975,38.735 82.731,38.735 82.497,38.735 82.261,38.735 82.04,38.75 81.82,38.758 81.609,38.774 81.402,38.787 81.198,38.818 
			81.009,38.849 80.819,38.887 80.636,38.925 80.455,38.978 80.281,39.039 80.114,39.106 80.143,39.198 80.311,39.13 80.484,39.07 
			80.651,39.015 80.835,38.978 81.025,38.939 81.213,38.91 81.402,38.879 81.609,38.864 81.82,38.849 82.04,38.842 82.261,38.842 
			82.497,38.842 82.731,38.842 82.975,38.842 83.233,38.849 83.491,38.849 83.491,38.849 83.491,38.758 83.491,38.758 		"/>
		<polygon fill-rule="evenodd" clip-rule="evenodd" fill="#FFFFFF" points="86.095,41.331 86.095,41.331 86.132,41.02 
			86.132,40.731 86.08,40.465 85.996,40.215 85.874,39.98 85.721,39.768 85.54,39.578 85.351,39.411 85.13,39.266 84.902,39.13 
			84.66,39.023 84.424,38.932 84.175,38.864 83.938,38.811 83.704,38.774 83.491,38.758 83.491,38.849 83.704,38.864 83.923,38.902 
			84.159,38.955 84.393,39.023 84.63,39.114 84.857,39.221 85.085,39.342 85.29,39.486 85.48,39.653 85.646,39.828 85.798,40.024 
			85.904,40.247 85.988,40.481 86.041,40.731 86.041,41.02 86.003,41.316 86.003,41.316 86.095,41.331 86.095,41.331 		"/>
		<polygon fill-rule="evenodd" clip-rule="evenodd" fill="#FFFFFF" points="85.297,45.338 85.297,45.338 86.095,41.331 
			86.003,41.316 85.206,45.324 85.206,45.324 85.297,45.338 85.297,45.338 		"/>
		<polygon fill-rule="evenodd" clip-rule="evenodd" fill="#FBB231" points="83.415,43.35 83.4,43.304 83.371,43.267 83.316,43.244 
			83.241,43.222 83.157,43.213 83.058,43.205 82.944,43.205 82.831,43.213 82.709,43.228 82.587,43.244 82.466,43.259 
			82.351,43.274 82.24,43.297 82.14,43.312 82.04,43.335 81.965,43.35 81.913,43.357 81.851,43.38 81.776,43.403 81.691,43.434 
			81.592,43.478 81.503,43.525 81.396,43.578 81.297,43.645 81.198,43.714 81.099,43.798 81.016,43.88 80.933,43.98 80.864,44.086 
			80.811,44.2 80.766,44.322 80.744,44.451 80.736,44.709 80.771,44.914 80.835,45.066 80.925,45.18 81.039,45.255 81.169,45.301 
			81.297,45.324 81.426,45.331 81.654,45.324 81.866,45.301 82.064,45.262 82.24,45.21 82.405,45.149 82.55,45.081 82.686,45.004 
			82.807,44.914 82.915,44.83 83.004,44.732 83.088,44.64 83.157,44.541 83.21,44.451 83.248,44.359 83.279,44.269 83.301,44.185 
			83.332,43.972 83.371,43.752 83.4,43.54 83.415,43.35 83.415,43.35 		"/>
		<polygon fill-rule="evenodd" clip-rule="evenodd" fill="#FFFFFF" points="99.051,45.978 99.068,45.802 99.126,45.597 
			99.233,45.415 99.362,45.255 99.522,45.127 99.706,45.035 99.903,44.974 100.114,44.952 100.328,44.974 100.524,45.035 
			100.707,45.127 100.867,45.255 100.996,45.415 101.102,45.597 101.162,45.802 101.178,45.978 100.95,45.978 100.943,45.84 
			100.896,45.672 100.82,45.521 100.722,45.391 100.601,45.285 100.457,45.21 100.29,45.157 100.114,45.141 99.94,45.157 
			99.774,45.21 99.629,45.285 99.507,45.391 99.409,45.521 99.333,45.672 99.288,45.84 99.272,45.978 99.051,45.978 99.051,45.978 
					"/>
		<polygon fill-rule="evenodd" clip-rule="evenodd" fill="#FFFFFF" points="99.735,45.978 99.735,45.521 100.152,45.521 
			100.244,45.529 100.328,45.543 100.388,45.566 100.441,45.597 100.479,45.643 100.509,45.688 100.524,45.741 100.532,45.794 
			100.524,45.862 100.509,45.916 100.487,45.961 100.471,45.978 100.152,45.978 100.182,45.969 100.236,45.961 100.281,45.947 
			100.32,45.931 100.35,45.909 100.366,45.885 100.38,45.848 100.38,45.794 100.372,45.756 100.357,45.726 100.336,45.711 
			100.312,45.696 100.273,45.688 100.236,45.682 100.198,45.682 100.152,45.682 99.925,45.682 99.925,45.978 99.735,45.978 
			99.735,45.978 		"/>
		<polygon fill-rule="evenodd" clip-rule="evenodd" fill="#FFFFFF" points="99.051,45.978 99.045,46.022 99.068,46.242 
			99.126,46.447 99.233,46.629 99.362,46.781 99.522,46.909 99.706,47.01 99.903,47.07 100.114,47.093 100.328,47.07 100.524,47.01 
			100.707,46.909 100.867,46.781 100.996,46.629 101.102,46.447 101.162,46.242 101.184,46.022 101.178,45.978 100.95,45.978 
			100.957,46.022 100.943,46.204 100.896,46.372 100.82,46.516 100.722,46.644 100.601,46.751 100.457,46.833 100.29,46.887 
			100.114,46.902 99.94,46.887 99.774,46.833 99.629,46.751 99.507,46.644 99.409,46.516 99.333,46.372 99.288,46.204 
			99.272,46.022 99.272,45.978 99.051,45.978 99.051,45.978 		"/>
		<polygon fill-rule="evenodd" clip-rule="evenodd" fill="#FFFFFF" points="99.735,45.978 99.735,46.44 99.925,46.44 99.925,46.061 
			100.114,46.061 100.341,46.44 100.495,46.44 100.267,46.061 100.32,46.061 100.372,46.044 100.418,46.029 100.457,45.999 
			100.471,45.978 100.152,45.978 100.114,45.984 99.925,45.984 99.925,45.978 99.735,45.978 99.735,45.978 		"/>
		<path fill="none" stroke="#FFFFFF" stroke-width="0.216" stroke-miterlimit="2.6131" d="M99.045,46.022L99.045,46.022l0.024-0.22
			l0.058-0.205l0.107-0.182l0.129-0.159l0.16-0.128l0.183-0.092l0.197-0.062l0.211-0.022l0,0l0.213,0.022l0.197,0.062l0.183,0.092
			l0.16,0.128l0.129,0.159l0.106,0.182l0.06,0.205l0.022,0.22l0,0l-0.022,0.22l-0.06,0.205l-0.106,0.183l-0.129,0.152l-0.16,0.128
			l-0.183,0.101l-0.197,0.06l-0.213,0.023l0,0l-0.211-0.023l-0.197-0.06l-0.183-0.101l-0.16-0.128l-0.129-0.152l-0.107-0.183
			l-0.058-0.205L99.045,46.022 M99.925,46.44h-0.19v-0.919h0.417l0,0l0.092,0.007l0.083,0.015l0.06,0.023l0.053,0.03l0.038,0.046
			l0.03,0.046l0.015,0.052l0.008,0.054l0,0l-0.008,0.068l-0.015,0.053l-0.022,0.046l-0.03,0.038l-0.039,0.03l-0.046,0.015
			l-0.052,0.016h-0.053l0.228,0.379h-0.153l-0.227-0.379h-0.189V46.44 M100.114,45.984L100.114,45.984l0.068-0.016l0.054-0.007
			l0.045-0.015l0.039-0.016l0.03-0.023l0.016-0.024l0.014-0.037v-0.054l0,0l-0.008-0.038l-0.015-0.031l-0.021-0.015l-0.024-0.015
			l-0.038-0.007l-0.037-0.007h-0.038h-0.046h-0.227v0.303H100.114 M100.114,46.902L100.114,46.902l0.175-0.015l0.167-0.054
			l0.145-0.083l0.121-0.107l0.099-0.127l0.076-0.145l0.047-0.167l0.015-0.182l0,0l-0.015-0.182l-0.047-0.167l-0.076-0.151
			l-0.099-0.13l-0.121-0.106l-0.145-0.075l-0.167-0.053l-0.175-0.016l0,0l-0.174,0.016l-0.167,0.053l-0.144,0.075l-0.123,0.106
			l-0.098,0.13l-0.075,0.151l-0.046,0.167l-0.016,0.182l0,0l0.016,0.182l0.046,0.167l0.075,0.145l0.098,0.127l0.123,0.107
			l0.144,0.083l0.167,0.054L100.114,46.902"/>
		<polygon fill-rule="evenodd" clip-rule="evenodd" fill="#FFFFFF" points="85.822,47.016 87.963,47.016 87.963,47.016 
			88.729,42.697 88.759,42.531 88.805,42.363 88.85,42.196 88.911,42.029 88.987,41.863 89.078,41.703 89.177,41.551 89.298,41.407 
			89.435,41.278 89.586,41.156 89.761,41.041 89.958,40.951 90.178,40.876 90.421,40.815 90.687,40.769 90.982,40.753 91.09,40.753 
			91.15,40.753 91.172,40.753 91.172,40.753 91.514,38.803 91.301,38.818 91.097,38.842 90.907,38.879 90.724,38.932 90.558,38.992 
			90.398,39.07 90.246,39.152 90.102,39.243 89.966,39.351 89.836,39.456 89.715,39.578 89.594,39.699 89.479,39.828 89.366,39.972 
			89.253,40.108 89.147,40.261 89.374,38.887 87.241,38.887 85.822,47.016 85.822,47.016 85.822,47.016 		"/>
		<polyline fill="none" stroke="#FFFFFF" stroke-width="0.216" stroke-miterlimit="2.6131" points="85.822,47.016 87.963,47.016 
			87.963,47.016 88.729,42.697 88.729,42.697 88.759,42.531 88.805,42.363 88.85,42.196 88.911,42.029 88.987,41.863 89.078,41.703 
			89.177,41.551 89.298,41.407 89.435,41.278 89.586,41.156 89.761,41.041 89.958,40.951 90.178,40.876 90.421,40.815 
			90.687,40.769 90.982,40.753 90.982,40.753 91.09,40.753 91.15,40.753 91.172,40.753 91.172,40.753 91.514,38.803 91.514,38.803 
			91.301,38.818 91.097,38.842 90.907,38.879 90.724,38.932 90.558,38.992 90.398,39.07 90.246,39.152 90.102,39.243 89.966,39.351 
			89.836,39.456 89.715,39.578 89.594,39.699 89.479,39.828 89.366,39.972 89.253,40.108 89.147,40.261 89.374,38.887 
			87.241,38.887 85.822,47.016 85.822,47.016 		"/>
		<polygon fill-rule="evenodd" clip-rule="evenodd" fill="#FFFFFF" points="65.721,47.016 67.861,47.016 67.899,47.016 
			68.628,42.697 68.659,42.531 68.696,42.371 68.734,42.212 68.788,42.06 68.848,41.908 68.924,41.763 69.015,41.627 69.121,41.498 
			69.243,41.383 69.379,41.27 69.547,41.179 69.729,41.096 69.941,41.026 70.177,40.967 70.435,40.928 70.73,40.906 70.754,40.906 
			70.784,40.914 70.822,40.921 70.86,40.921 70.897,40.928 70.929,40.936 70.95,40.944 70.958,40.944 70.966,40.914 70.989,40.822 
			71.019,40.686 71.058,40.519 71.11,40.321 71.164,40.108 71.232,39.896 71.299,39.683 71.361,39.539 71.437,39.394 71.513,39.251 
			71.588,39.122 71.656,39.009 71.71,38.917 71.748,38.864 71.762,38.842 71.756,38.842 71.725,38.833 71.688,38.826 71.634,38.818 
			71.582,38.818 71.521,38.811 71.467,38.803 71.414,38.803 71.178,38.818 70.966,38.842 70.769,38.879 70.587,38.925 
			70.413,38.985 70.253,39.062 70.108,39.137 69.971,39.228 69.843,39.327 69.721,39.441 69.607,39.555 69.494,39.683 
			69.379,39.813 69.273,39.958 69.16,40.108 69.045,40.261 69.318,38.887 67.14,38.887 65.721,47.016 65.721,47.016 65.721,47.016 
					"/>
		<polyline fill="none" stroke="#FFFFFF" stroke-width="0.216" stroke-miterlimit="2.6131" points="65.721,47.016 67.861,47.016 
			67.899,47.016 68.628,42.697 68.628,42.697 68.659,42.531 68.696,42.371 68.734,42.212 68.788,42.06 68.848,41.908 68.924,41.763 
			69.015,41.627 69.121,41.498 69.243,41.383 69.379,41.27 69.547,41.179 69.729,41.096 69.941,41.026 70.177,40.967 70.435,40.928 
			70.73,40.906 70.73,40.906 70.754,40.906 70.784,40.914 70.822,40.921 70.86,40.921 70.897,40.928 70.929,40.936 70.95,40.944 
			70.958,40.944 70.958,40.944 70.966,40.914 70.989,40.822 71.019,40.686 71.058,40.519 71.11,40.321 71.164,40.108 71.232,39.896 
			71.299,39.683 71.299,39.683 71.361,39.539 71.437,39.394 71.513,39.251 71.588,39.122 71.656,39.009 71.71,38.917 71.748,38.864 
			71.762,38.842 71.762,38.842 71.756,38.842 71.725,38.833 71.688,38.826 71.634,38.818 71.582,38.818 71.521,38.811 
			71.467,38.803 71.414,38.803 71.414,38.803 71.178,38.818 70.966,38.842 70.769,38.879 70.587,38.925 70.413,38.985 
			70.253,39.062 70.108,39.137 69.971,39.228 69.843,39.327 69.721,39.441 69.607,39.555 69.494,39.683 69.379,39.813 
			69.273,39.958 69.16,40.108 69.045,40.261 69.318,38.887 67.14,38.887 65.721,47.016 65.721,47.016 		"/>
		<polygon fill-rule="evenodd" clip-rule="evenodd" fill="#FBB231" points="99.068,55.002 99.068,54.971 99.126,54.774 99.233,54.6 
			99.362,54.448 99.522,54.327 99.706,54.235 99.903,54.183 100.114,54.159 100.328,54.183 100.524,54.235 100.707,54.327 
			100.867,54.448 100.996,54.6 101.102,54.774 101.162,54.971 101.162,55.002 100.943,55.002 100.896,54.844 100.82,54.699 
			100.722,54.569 100.601,54.463 100.457,54.379 100.29,54.327 100.114,54.311 99.94,54.327 99.774,54.379 99.629,54.463 
			99.507,54.569 99.409,54.699 99.333,54.844 99.288,55.002 99.068,55.002 99.068,55.002 		"/>
		<polygon fill-rule="evenodd" clip-rule="evenodd" fill="#FBB231" points="99.735,55.002 99.735,54.737 100.152,54.737 
			100.244,54.737 100.328,54.752 100.388,54.766 100.441,54.796 100.479,54.835 100.509,54.881 100.524,54.934 100.532,55.002 
			100.38,55.002 100.38,54.964 100.372,54.926 100.357,54.895 100.336,54.881 100.312,54.865 100.273,54.857 100.236,54.851 
			100.198,54.851 100.152,54.851 99.925,54.851 99.925,55.002 99.735,55.002 99.735,55.002 		"/>
		<polygon fill-rule="evenodd" clip-rule="evenodd" fill="#FBB231" points="99.045,55.168 99.068,55.002 99.288,55.002 
			99.288,55.009 99.272,55.168 99.045,55.168 99.045,55.168 		"/>
		<polygon fill-rule="evenodd" clip-rule="evenodd" fill="#FBB231" points="99.735,55.168 99.735,55.002 99.925,55.002 
			99.925,55.153 100.114,55.153 100.182,55.139 100.236,55.131 100.281,55.115 100.32,55.101 100.35,55.078 100.366,55.055 
			100.38,55.018 100.38,55.002 100.532,55.002 100.532,55.002 100.524,55.055 100.509,55.101 100.487,55.139 100.457,55.168 
			99.735,55.168 99.735,55.168 		"/>
		<polygon fill-rule="evenodd" clip-rule="evenodd" fill="#FBB231" points="100.957,55.168 100.943,55.009 100.943,55.002 
			101.162,55.002 101.184,55.168 100.957,55.168 100.957,55.168 		"/>
		<polygon fill-rule="evenodd" clip-rule="evenodd" fill="#FBB231" points="99.045,55.168 99.045,55.191 99.068,55.411 
			99.126,55.616 99.233,55.799 99.362,55.958 99.522,56.088 99.706,56.178 99.903,56.239 100.114,56.262 100.328,56.239 
			100.524,56.178 100.707,56.088 100.867,55.958 100.996,55.799 101.102,55.616 101.162,55.411 101.184,55.191 101.184,55.168 
			100.957,55.168 100.957,55.191 100.943,55.374 100.896,55.541 100.82,55.685 100.722,55.812 100.601,55.921 100.457,56.004 
			100.29,56.057 100.114,56.072 99.94,56.057 99.774,56.004 99.629,55.921 99.507,55.812 99.409,55.685 99.333,55.541 
			99.288,55.374 99.272,55.191 99.272,55.168 99.045,55.168 99.045,55.168 		"/>
		<polygon fill-rule="evenodd" clip-rule="evenodd" fill="#FBB231" points="99.735,55.168 99.735,55.609 99.925,55.609 
			99.925,55.229 100.114,55.229 100.341,55.609 100.495,55.609 100.267,55.229 100.32,55.229 100.372,55.215 100.418,55.199 
			100.457,55.168 100.457,55.168 99.735,55.168 99.735,55.168 		"/>
		<path fill-rule="evenodd" clip-rule="evenodd" fill="#FFFFFF" d="M65.957,41.307l-0.061-0.454l-0.107-0.403l-0.151-0.349
			l-0.19-0.304l-0.227-0.259l-0.25-0.212l-0.273-0.182L64.4,39.009l-0.303-0.115l-0.311-0.076l-0.312-0.053l-0.311-0.03
			l-0.296-0.008l-0.616,0.032l-0.545,0.09l-0.495,0.137l-0.439,0.19l-0.379,0.228l-0.335,0.258l-0.296,0.288l-0.242,0.304
			l-0.213,0.319l-0.174,0.333l-0.136,0.327l-0.115,0.325l-0.083,0.32l-0.062,0.295l-0.044,0.281l-0.03,0.243l-0.039,0.622
			l0.023,0.561l0.083,0.509l0.128,0.448l0.184,0.402l0.22,0.35l0.257,0.311l0.296,0.258l0.319,0.221l0.343,0.189l0.356,0.146
			l0.372,0.113l0.379,0.092l0.381,0.054l0.378,0.038l0.372,0.006h0.25l0.237-0.006h0.204l0.198-0.009l0.175-0.015l0.159-0.015
			l0.151-0.016l0.137-0.023l0.129-0.024l0.121-0.029l0.123-0.039l0.114-0.037l0.113-0.047l0.122-0.044l0.12-0.062l0.123-0.06
			l0.303-1.868l-0.22,0.129l-0.213,0.12l-0.219,0.092l-0.214,0.083l-0.205,0.068l-0.212,0.045l-0.206,0.039l-0.205,0.03
			l-0.205,0.016l-0.197,0.007h-0.206l-0.197-0.007l-0.197-0.016l-0.198-0.022l-0.19-0.023l-0.197-0.03l-0.152-0.031l-0.151-0.053
			l-0.151-0.067l-0.138-0.084l-0.136-0.09l-0.123-0.113l-0.113-0.115l-0.106-0.13l-0.09-0.128L60.97,44.3l-0.062-0.138l-0.053-0.145
			l-0.03-0.145l-0.015-0.145l0.006-0.128l0.019-0.099h4.924l0.038-0.463l0.115-0.639l0.053-0.577L65.957,41.307z M63.899,42.006
			h-2.773l0.003-0.006l-0.005-0.001l0.02-0.106l0.031-0.159l0.045-0.152l0.053-0.151l0.069-0.136l0.069-0.13l0.083-0.123
			l0.091-0.113l0.1-0.106l0.097-0.091l0.116-0.083l0.112-0.069l0.13-0.061l0.129-0.044l0.129-0.031l0.136-0.023l0.145-0.008
			l0.137,0.016l0.129,0.023l0.122,0.031l0.121,0.044l0.114,0.061l0.114,0.068l0.1,0.076l0.09,0.091l0.076,0.106l0.077,0.113
			l0.053,0.13l0.053,0.145l0.029,0.151l0.016,0.167l0.009,0.182L63.899,42.006z"/>
	</g>
</g>
<g display="none">
	<path display="inline" fill="#F9F9F9" stroke="#BBBBBC" stroke-width="0.2" stroke-miterlimit="10" d="M127.716,76.381
		c0,2.309-1.873,4.18-4.181,4.18H6.466c-2.308,0-4.182-1.871-4.182-4.18V6.347c0-2.309,1.873-4.18,4.182-4.18h117.069
		c2.308,0,4.181,1.871,4.181,4.18V76.381z"/>
	<g display="inline">
		<path fill="#FFFFFF" d="M41.201,39.539v-1.254l-0.601,1.254h-5.193l-0.651-1.346v1.346H25.05l-1.148-2.715h-1.943l-1.213,2.715
			h-5.037v-8.195l3.692-8.348h7.064l0.992,2.365v-2.348h8.641l1.899,3.982l1.857-4h27.275c0,0,1.43-0.019,2.369,0.643l-0.003-0.643
			h6.87V23.9c0,0,1.235-0.904,3.062-0.904c1.827,0,12.125,0,12.125,0l1.065,2.4v-2.4h7.77l1.41,2.4v-2.4h7.428v16.559h-7.631
			L99.8,36.668v2.871h-9.484l-1.335-2.957h-1.858l-1.253,2.957h-5.738c0,0-2.14-0.027-3.746-1.176c0,0.602,0,1.176,0,1.176H64.958
			c0,0,0-3.301,0-3.863c0-0.561-0.431-0.522-0.431-0.522h-0.416v4.385H41.201z"/>
		<path fill="#FFFFFF" d="M35.5,43.125h15.017l2.165,2.453l2.217-2.453h11.546c0,0,1.084,0.027,2.115,0.576v-0.576
			c0,0,8.976,0,10.28,0c1.305,0,2.402,0.652,2.402,0.652v-0.652h13.215v0.602c0,0,0.939-0.602,2.205-0.602c1.264,0,8.61,0,8.61,0
			v0.602c0,0,1.084-0.602,2.23-0.602c1.148,0,6.758,0,6.758,0v15.604c0,0-0.887,1.006-2.726,1.006h-8.912v-0.496
			c0,0-0.847,0.496-2.139,0.496c-1.291,0-23.673,0-23.673,0s0-3.633,0-4.033c0-0.396-0.174-0.469-0.527-0.469h-0.327v4.502h-7.396
			v-4.475c0,0-0.822,0.441-2.191,0.441c-1.371,0-2.662,0-2.662,0v4.033h-9.119l-2.076-2.531l-2.217,2.531H35.5V43.125z"/>
		<polygon fill="#0078A9" points="82.826,45.615 92.249,45.615 92.249,48.142 85.711,48.142 85.711,50.345 92.066,50.345 
			92.066,52.572 85.711,52.572 85.711,54.89 92.249,54.89 92.249,57.355 82.826,57.355 		"/>
		<path fill="#0078A9" d="M110.454,50.189c3.543,0.182,3.838,1.951,3.838,3.838c0,2.199-1.809,3.381-3.694,3.381h-6.055V54.89h4.718
			c0.799,0,1.991,0,1.991-1.127c0-0.535-0.209-0.877-1.062-0.967c-0.378-0.055-1.779-0.133-1.991-0.137
			c-3.2-0.084-3.945-1.676-3.945-3.613c0-2.201,1.547-3.404,3.435-3.404h6.055v2.516h-4.432c-1.007,0.01-2.094-0.119-2.094,1.02
			c0,0.721,0.535,0.865,1.217,0.932C108.671,50.109,110.242,50.191,110.454,50.189z"/>
		<path fill="#0078A9" d="M99.602,50.189c3.543,0.182,3.839,1.951,3.839,3.838c0,2.199-1.808,3.381-3.695,3.381h-6.054V54.89h4.718
			c0.799,0,1.993,0,1.993-1.127c0-0.535-0.211-0.877-1.063-0.967c-0.38-0.055-1.782-0.133-1.992-0.137
			c-3.2-0.084-3.943-1.676-3.943-3.613c0-2.201,1.545-3.404,3.433-3.404h6.054v2.516h-4.429c-1.01,0.01-2.097-0.119-2.097,1.02
			c0,0.721,0.537,0.865,1.219,0.932C97.819,50.109,99.393,50.191,99.602,50.189z"/>
		<path fill="#0078A9" d="M65.425,45.64H55.309l-3.302,3.643l-3.196-3.668H37.45v11.74h10.995l3.459-3.879l3.381,3.906h5.53v-3.986
			h3.878c1.495,0,4.22-0.051,4.22-4.166C68.911,46.295,66.841,45.64,65.425,45.64z M46.937,54.89h-6.644v-2.318h6.356v-2.227h-6.356
			v-2.203l7.01,0.016l2.806,3.195L46.937,54.89z M57.957,56.254l-4.141-4.9l4.141-4.586V56.254z M64.456,50.978h-3.59V48.16h3.6
			c1.206,0,1.587,0.773,1.587,1.35C66.053,50.297,65.634,50.978,64.456,50.978z"/>
		<path fill="#0078A9" d="M79.348,52.035c1.573-0.785,1.993-1.834,1.993-3.25c0-2.514-2.043-3.143-3.46-3.143h-7.493v11.74h2.882
			V53.24h3.774c0.995,0,1.388,0.996,1.413,1.992l0.079,2.15h2.805l-0.105-2.412C81.236,53.082,80.713,52.191,79.348,52.035z
			 M76.859,50.82H73.27v-2.66h3.602c1.206,0,1.585,0.773,1.585,1.35C78.457,50.295,78.039,50.82,76.859,50.82z"/>
		<rect x="71.542" y="25.347" fill="#0078A9" width="2.883" height="11.754"/>
		<polygon fill="#0078A9" points="47.946,25.361 57.366,25.361 57.366,27.888 50.83,27.888 50.83,30.091 57.183,30.091 
			57.183,32.318 50.83,32.318 50.83,34.636 57.366,34.636 57.366,37.101 47.946,37.101 		"/>
		<path fill="#0078A9" d="M68.04,31.754c1.574-0.783,1.993-1.834,1.993-3.25c0-2.516-2.044-3.142-3.461-3.142h-7.493v11.74h2.883
			v-4.141h3.772c0.998,0,1.39,0.994,1.416,1.99l0.08,2.15h2.804l-0.105-2.412C69.928,32.802,69.403,31.912,68.04,31.754z
			 M65.551,30.539h-3.59v-2.66h3.603c1.206,0,1.585,0.774,1.585,1.35C67.148,30.015,66.73,30.539,65.551,30.539z"/>
		<path fill="#0078A9" d="M41.298,25.361l-3.537,7.875l-3.525-7.875h-4.52v11.307l-5.032-11.307H20.87l-5.137,11.74h3.041
			l1.125-2.621h5.754l1.141,2.621h5.804v-8.715l3.851,8.715h2.622l3.944-8.57v8.57h2.883v-11.74H41.298z M20.988,31.947l1.719-4.104
			l1.791,4.104H20.988z"/>
		<path fill="#0078A9" d="M104.17,25.355v8.129l-4.86-8.129h-4.26v11.025l-4.912-11.019h-3.814l-3.971,9.094
			c0,0-1.677,0-1.846-0.041c-0.697-0.143-1.781-0.633-1.795-2.703v-0.852c0-2.752,1.495-2.953,3.41-2.953h1.78v-2.551h-3.764
			c-1.311,0-4.161,1-4.257,5.822c-0.066,3.25,1.349,5.93,4.545,5.93h3.801l1.126-2.621h5.753l1.139,2.621h5.687v-8.598l5.188,8.598
			h3.931V25.355H104.17z M86.465,31.953l1.716-4.104l1.808,4.104H86.465z"/>
	</g>
</g>
<g display="none">
	<path display="inline" fill="#F9F9F9" stroke="#BBBBBC" stroke-width="0.2" stroke-miterlimit="10" d="M127.715,76.38
		c0,2.309-1.873,4.182-4.181,4.182H6.466c-2.308,0-4.181-1.873-4.181-4.182V6.348c0-2.311,1.874-4.182,4.181-4.182h117.068
		c2.308,0,4.181,1.871,4.181,4.182V76.38z"/>
	<path display="inline" fill="#F58220" d="M36.763,80.561h86.771c2.308,0,4.181-1.873,4.181-4.182V47.026
		C119.387,52.305,87.99,70.507,36.763,80.561z"/>
	<g display="inline">
		
			<radialGradient id="SVGID_1_" cx="60.1079" cy="-444.7142" r="6.181" gradientTransform="matrix(1 0 0 1 6.416 486.083)" gradientUnits="userSpaceOnUse">
			<stop  offset="0.0056" style="stop-color:#FFEEE0"/>
			<stop  offset="0.1096" style="stop-color:#FEE9D7"/>
			<stop  offset="0.2793" style="stop-color:#FDDBBF"/>
			<stop  offset="0.4935" style="stop-color:#FBC597"/>
			<stop  offset="0.744" style="stop-color:#F8A560"/>
			<stop  offset="1" style="stop-color:#F48120"/>
		</radialGradient>
		<path fill="url(#SVGID_1_)" d="M66.532,35.258c-3.456,0-6.259,2.699-6.259,6.031c0,3.543,2.681,6.189,6.259,6.189
			c3.489,0,6.243-2.682,6.243-6.121C72.775,37.942,70.038,35.258,66.532,35.258z"/>
		<path fill="#001722" d="M30.997,35.477h-3.364v11.738h3.348c1.775,0,3.06-0.422,4.187-1.354c1.336-1.111,2.129-2.783,2.129-4.51
			C37.297,37.887,34.708,35.477,30.997,35.477z M33.673,44.294c-0.724,0.652-1.655,0.934-3.135,0.934h-0.615v-7.762h0.615
			c1.48,0,2.375,0.264,3.135,0.949c0.792,0.705,1.263,1.795,1.263,2.92C34.937,42.464,34.465,43.592,33.673,44.294z"/>
		<rect x="38.354" y="35.477" fill="#001722" width="2.288" height="11.738"/>
		<path fill="#001722" d="M46.24,39.979c-1.375-0.508-1.778-0.844-1.778-1.477c0-0.738,0.718-1.301,1.707-1.301
			c0.686,0,1.25,0.281,1.849,0.947l1.195-1.563c-0.986-0.865-2.165-1.305-3.45-1.305c-2.075,0-3.66,1.443-3.66,3.361
			c0,1.621,0.739,2.447,2.886,3.221c0.898,0.316,1.355,0.527,1.584,0.67c0.458,0.301,0.688,0.721,0.688,1.213
			c0,0.953-0.758,1.654-1.78,1.654c-1.091,0-1.97-0.543-2.498-1.564l-1.476,1.428c1.054,1.547,2.321,2.234,4.065,2.234
			c2.376,0,4.047-1.586,4.047-3.856C49.618,41.778,48.845,40.932,46.24,39.979z"/>
		<path fill="#001722" d="M50.338,41.352c0,3.453,2.712,6.127,6.196,6.127c0.987,0,1.831-0.193,2.871-0.686V44.1
			c-0.917,0.916-1.727,1.283-2.766,1.283c-2.305,0-3.943-1.672-3.943-4.049c0-2.25,1.689-4.029,3.838-4.029
			c1.089,0,1.918,0.389,2.871,1.32v-2.693c-1.003-0.51-1.833-0.719-2.817-0.719C53.12,35.214,50.338,37.942,50.338,41.352z"/>
		<polygon fill="#001722" points="77.955,43.362 74.821,35.477 72.322,35.477 77.304,47.516 78.536,47.516 83.605,35.477 
			81.124,35.477 		"/>
		<polygon fill="#001722" points="84.646,47.216 91.14,47.216 91.14,45.227 86.933,45.227 86.933,42.057 90.979,42.057 
			90.979,40.071 86.933,40.071 86.933,37.466 91.14,37.466 91.14,35.477 84.646,35.477 		"/>
		<path fill="#001722" d="M100.202,38.942c0-2.199-1.513-3.465-4.153-3.465h-3.398v11.738h2.29v-4.717h0.3l3.167,4.717h2.816
			l-3.698-4.945C99.252,41.919,100.202,40.739,100.202,38.942z M95.607,40.88H94.94v-3.557h0.704c1.428,0,2.203,0.601,2.203,1.742
			C97.847,40.245,97.072,40.88,95.607,40.88z"/>
		<path fill="#231F20" d="M101.817,36.352c0-0.205-0.138-0.318-0.39-0.318h-0.333v1.035h0.245v-0.402l0.289,0.402h0.308
			l-0.345-0.428C101.735,36.602,101.817,36.497,101.817,36.352z M101.384,36.493h-0.046v-0.268h0.049
			c0.121,0,0.183,0.043,0.183,0.131C101.57,36.446,101.505,36.493,101.384,36.493z"/>
		<path fill="#231F20" d="M101.475,35.645c-0.5,0-0.901,0.402-0.901,0.904c0,0.5,0.402,0.902,0.901,0.902
			c0.491,0,0.893-0.406,0.893-0.902C102.368,36.053,101.966,35.645,101.475,35.645z M101.474,37.29
			c-0.399,0-0.723-0.328-0.723-0.738c0-0.414,0.321-0.742,0.723-0.742c0.391,0,0.712,0.334,0.712,0.742
			C102.186,36.958,101.865,37.29,101.474,37.29z"/>
	</g>
</g>
<g display="none">
	<path display="inline" fill="#FFFFFF" stroke="#BBBBBC" stroke-width="0.2" stroke-miterlimit="10" d="M127.715,76.38
		c0,2.309-1.873,4.182-4.181,4.182H6.466c-2.308,0-4.181-1.873-4.181-4.182V6.348c0-2.311,1.874-4.182,4.181-4.182h117.068
		c2.308,0,4.181,1.871,4.181,4.182V76.38z"/>
	<path display="inline" fill="#03A9F4" d="M76.241,36.205c-0.189-0.111-0.421-0.119-0.616-0.021
		c-0.195,0.098-0.327,0.289-0.351,0.507c-0.023,0.211-0.059,0.423-0.104,0.645c-1.262,5.728-3.797,8.514-7.751,8.514h-5.802
		c-0.306,0.001-0.569,0.216-0.63,0.516l-1.934,9.065l-0.346,2.308c-0.199,1.049,0.491,2.061,1.54,2.26
		c0.116,0.022,0.233,0.033,0.351,0.034h3.881c0.889,0.003,1.665-0.604,1.876-1.468l1.568-6.267h3.364
		c3.97,0,6.713-3.165,7.725-8.913l0,0C79.679,40.647,78.574,37.784,76.241,36.205z"/>
	<path display="inline" fill="#283593" d="M75.025,31.387c-1.274-1.445-3.102-2.28-5.028-2.297H59.322
		c-1.598-0.009-2.958,1.16-3.19,2.741l-3.315,22.112c-0.159,1.056,0.569,2.041,1.625,2.2c0.096,0.014,0.193,0.022,0.29,0.021h4.951
		c0.306-0.001,0.569-0.216,0.63-0.516l1.824-8.509h5.286c4.587,0,7.618-3.206,9.011-9.54c0.056-0.252,0.099-0.508,0.129-0.765
		C76.886,34.88,76.323,32.884,75.025,31.387z"/>
</g>
</svg>
