<?xml version="1.0" encoding="utf-8"?>
<!-- Generator: Adobe Illustrator 17.0.0, SVG Export Plug-In . SVG Version: 6.00 Build 0)  -->
<!DOCTYPE svg PUBLIC "-//W3C//DTD SVG 1.1//EN" "http://www.w3.org/Graphics/SVG/1.1/DTD/svg11.dtd">
<svg version="1.1" id="Layer_1" xmlns="http://www.w3.org/2000/svg" xmlns:xlink="http://www.w3.org/1999/xlink" x="0px" y="0px"
	 width="130px" height="80px" viewBox="0 0 130 80" enable-background="new 0 0 130 80" xml:space="preserve">
<g display="none">
	<path display="inline" fill="#F9F9F9" d="M127.715,74.881c0,2.309-1.871,4.18-4.18,4.18H6.466c-2.309,0-4.181-1.871-4.181-4.18
		V4.85c0-2.311,1.872-4.182,4.181-4.182h117.068c2.309,0,4.18,1.872,4.18,4.182L127.715,74.881L127.715,74.881z"/>
	<g display="inline">
		<g>
			<polygon fill="#0066B2" points="60.006,51.64 53.88,51.64 57.709,28.105 63.837,28.105 			"/>
			<path fill="#0066B2" d="M48.725,28.105l-5.841,16.187l-0.692-3.485v0.001L40.13,30.224c0,0-0.248-2.119-2.906-2.119h-9.657
				l-0.113,0.399c0,0,2.953,0.613,6.41,2.69l5.323,20.446h6.384l9.749-23.535H48.725z"/>
			<path fill="#0066B2" d="M96.92,51.64h5.626l-4.905-23.535h-4.925c-2.275,0-2.83,1.753-2.83,1.753L80.748,51.64h6.386l1.278-3.495
				h7.789L96.92,51.64z M90.178,43.315l3.219-8.809l1.812,8.809C95.209,43.315,90.178,43.315,90.178,43.315z"/>
			<path fill="#0066B2" d="M81.227,33.764l0.874-5.054c0,0-2.699-1.025-5.51-1.025c-3.042,0-10.262,1.329-10.262,7.791
				c0,6.081,8.476,6.156,8.476,9.348c0,3.193-7.602,2.623-10.112,0.608l-0.911,5.283c0,0,2.735,1.33,6.917,1.33
				c4.18,0,10.49-2.166,10.49-8.057c0-6.119-8.552-6.69-8.552-9.35C72.638,31.978,78.605,32.319,81.227,33.764z"/>
		</g>
		<path fill="#F9A533" d="M42.191,40.808L40.13,30.224c0,0-0.248-2.119-2.906-2.119h-9.657l-0.113,0.399
			c0,0,4.643,0.962,9.094,4.565C40.806,36.514,42.191,40.808,42.191,40.808z"/>
	</g>
</g>
<g display="none">
	<path display="inline" fill="#F9F9F9" d="M127.715,74.881c0,2.31-1.873,4.18-4.181,4.18H6.466c-2.308,0-4.181-1.87-4.181-4.18V4.85
		c0-2.31,1.874-4.182,4.181-4.182h117.068c2.308,0,4.181,1.872,4.181,4.182C127.715,4.85,127.715,74.881,127.715,74.881z"/>
	<g display="inline">
		<polygon fill="#FBB231" points="80.053,62.367 81.213,62.337 82.36,62.254 83.484,62.111 84.599,61.912 85.684,61.662 
			86.755,61.358 87.802,61.001 88.828,60.599 89.829,60.144 90.801,59.651 91.742,59.103 92.661,58.52 93.541,57.89 94.391,57.222 
			95.211,56.516 95.993,55.765 96.744,54.982 97.45,54.161 98.119,53.312 98.748,52.432 99.333,51.514 99.878,50.571 100.372,49.6 
			100.828,48.599 101.23,47.573 101.586,46.525 101.892,45.456 102.141,44.37 102.338,43.255 102.482,42.131 102.567,40.985 
			102.596,39.823 102.567,38.669 102.482,37.531 102.338,36.408 102.141,35.306 101.892,34.222 101.586,33.158 101.23,32.111 
			100.828,31.094 100.372,30.1 99.878,29.127 99.333,28.194 98.748,27.276 98.119,26.395 97.45,25.553 96.744,24.734 95.993,23.951 
			95.211,23.207 94.391,22.501 93.541,21.833 92.661,21.204 91.742,20.619 90.801,20.08 89.829,19.587 88.828,19.13 87.802,18.728 
			86.755,18.372 85.684,18.068 84.599,17.818 83.484,17.621 82.36,17.477 81.213,17.392 80.053,17.362 78.897,17.392 77.752,17.477 
			76.629,17.621 75.52,17.818 74.435,18.068 73.366,18.372 72.325,18.728 71.299,19.13 70.305,19.587 69.341,20.08 68.4,20.619 
			67.49,21.204 66.61,21.833 65.759,22.501 64.947,23.207 64.164,23.951 63.421,24.734 62.714,25.553 62.047,26.395 61.425,27.276 
			60.84,28.194 60.301,29.127 59.8,30.1 59.352,31.094 58.949,32.111 58.601,33.158 58.296,34.222 58.046,35.306 57.849,36.408 
			57.706,37.531 57.621,38.669 57.59,39.823 57.621,40.985 57.706,42.131 57.849,43.255 58.046,44.37 58.296,45.456 58.601,46.525 
			58.949,47.573 59.352,48.599 59.8,49.6 60.301,50.571 60.84,51.514 61.425,52.432 62.047,53.312 62.714,54.161 63.421,54.982 
			64.164,55.765 64.947,56.516 65.759,57.222 66.61,57.89 67.49,58.52 68.4,59.103 69.341,59.651 70.305,60.144 71.299,60.599 
			72.325,61.001 73.366,61.358 74.435,61.662 75.52,61.912 76.629,62.111 77.752,62.254 78.897,62.337 80.053,62.367 		"/>
		<polygon fill="#EC1C2E" points="49.948,62.367 51.1,62.337 52.247,62.254 53.371,62.111 54.479,61.912 55.564,61.662 
			56.634,61.358 57.675,61.001 58.699,60.599 59.693,60.144 60.658,59.651 61.599,59.103 62.509,58.52 63.391,57.89 64.241,57.222 
			65.052,56.516 65.835,55.765 66.579,54.982 67.285,54.161 67.952,53.312 68.574,52.432 69.16,51.514 69.699,50.571 70.199,49.6 
			70.646,48.599 71.05,47.573 71.398,46.525 71.702,45.456 71.953,44.37 72.15,43.255 72.294,42.131 72.377,40.985 72.408,39.823 
			72.377,38.669 72.294,37.531 72.15,36.408 71.953,35.306 71.702,34.222 71.398,33.158 71.05,32.111 70.646,31.094 70.199,30.1 
			69.699,29.127 69.16,28.194 68.574,27.276 67.952,26.395 67.285,25.553 66.579,24.734 65.835,23.951 65.052,23.207 64.241,22.501 
			63.391,21.833 62.509,21.204 61.599,20.619 60.658,20.08 59.693,19.587 58.699,19.13 57.675,18.728 56.634,18.372 55.564,18.068 
			54.479,17.818 53.371,17.621 52.247,17.477 51.1,17.392 49.948,17.362 48.785,17.392 47.64,17.477 46.516,17.621 45.399,17.818 
			44.314,18.068 43.244,18.372 42.196,18.728 41.172,19.13 40.17,19.587 39.198,20.08 38.257,20.619 37.338,21.204 36.458,21.833 
			35.608,22.501 34.788,23.207 34.007,23.951 33.255,24.734 32.549,25.553 31.881,26.395 31.251,27.276 30.667,28.194 30.12,29.127 
			29.627,30.1 29.171,31.094 28.769,32.111 28.413,33.158 28.109,34.222 27.858,35.306 27.661,36.408 27.516,37.531 27.433,38.669 
			27.402,39.823 27.433,40.985 27.516,42.131 27.661,43.255 27.858,44.37 28.109,45.456 28.413,46.525 28.769,47.573 29.171,48.599 
			29.627,49.6 30.12,50.571 30.667,51.514 31.251,52.432 31.881,53.312 32.549,54.161 33.255,54.982 34.007,55.765 34.788,56.516 
			35.608,57.222 36.458,57.89 37.338,58.52 38.257,59.103 39.198,59.651 40.17,60.144 41.172,60.599 42.196,61.001 43.244,61.358 
			44.314,61.662 45.399,61.912 46.516,62.111 47.64,62.254 48.785,62.337 49.948,62.367 		"/>
		<polygon fill="#FBB231" points="62.366,25.993 74.321,25.993 74.321,24.77 63.398,24.77 62.366,25.993 		"/>
		<polygon fill="#FBB231" points="60.574,28.71 74.321,28.71 74.321,27.487 61.295,27.487 60.574,28.71 		"/>
		<polygon fill="#FBB231" points="59.239,31.42 74.321,31.42 74.321,30.198 59.77,30.198 59.239,31.42 		"/>
		<polygon fill="#FBB231" points="58.32,34.138 74.321,34.138 74.321,32.916 58.699,32.916 58.32,34.138 		"/>
		<polygon fill="#FBB231" points="58.852,47.27 74.359,47.27 74.359,46.048 58.471,46.048 58.852,47.27 		"/>
		<polygon fill="#FBB231" points="59.997,49.987 74.359,49.987 74.359,48.765 59.428,48.765 59.997,49.987 		"/>
		<polygon fill="#FBB231" points="61.605,52.697 74.359,52.697 74.359,51.475 60.84,51.475 61.605,52.697 		"/>
		<polygon fill="#FBB231" points="63.823,55.415 74.359,55.415 74.359,54.185 62.753,54.185 63.823,55.415 		"/>
		<polygon fill="#FBB231" points="57.781,36.848 74.321,36.848 74.321,35.625 58.016,35.625 57.781,36.848 		"/>
		<polygon fill="#FBB231" points="67.861,44.561 74.169,44.561 74.169,43.337 68.089,43.337 67.861,44.561 		"/>
		<polygon fill="#FBB231" points="68.363,41.85 74.169,41.85 74.169,40.62 68.59,40.62 68.363,41.85 		"/>
		<polygon fill="#FBB231" points="57.363,40.62 59.004,40.62 59.004,41.85 57.44,41.85 57.363,40.62 		"/>
		<polygon fill="#FFFFFF" points="54.303,39.139 54.198,39.132 54.092,39.117 53.993,39.103 53.895,39.087 53.803,39.072 
			53.705,39.057 53.607,39.042 53.499,39.026 53.394,39.012 53.272,39.003 53.135,38.996 52.992,38.988 52.832,38.988 
			52.657,38.996 52.459,39.012 52.24,39.026 52.088,39.049 51.944,39.072 51.814,39.117 51.701,39.162 51.594,39.216 51.497,39.276 
			51.419,39.353 51.35,39.421 51.306,39.504 51.268,39.588 51.252,39.679 51.252,39.77 51.275,39.869 51.306,39.967 51.366,40.066 
			51.442,40.165 51.594,40.309 51.777,40.423 51.989,40.521 52.217,40.604 52.459,40.681 52.709,40.765 52.96,40.856 53.203,40.954 
			53.431,41.083 53.644,41.242 53.833,41.433 53.993,41.668 54.114,41.956 54.191,42.298 54.22,42.708 54.191,43.187 54.138,43.543 
			54.046,43.854 53.924,44.143 53.773,44.393 53.599,44.614 53.4,44.803 53.188,44.97 52.954,45.115 52.709,45.228 52.459,45.326 
			52.201,45.402 51.936,45.463 51.677,45.51 51.428,45.532 51.178,45.547 50.942,45.554 50.614,45.554 50.311,45.547 50.045,45.547 
			49.795,45.54 49.567,45.532 49.363,45.516 49.181,45.501 49.006,45.478 48.846,45.463 48.703,45.433 48.558,45.409 48.429,45.373 
			48.299,45.342 48.179,45.295 48.057,45.251 47.928,45.205 48.269,43.528 48.338,43.543 48.42,43.566 48.527,43.595 48.657,43.627 
			48.793,43.657 48.945,43.687 49.112,43.725 49.293,43.755 49.484,43.785 49.682,43.816 49.886,43.838 50.099,43.861 
			50.318,43.869 50.541,43.876 50.758,43.876 50.979,43.869 51.2,43.824 51.375,43.762 51.51,43.68 51.617,43.573 51.693,43.467 
			51.754,43.344 51.792,43.224 51.822,43.11 51.838,42.89 51.77,42.7 51.639,42.547 51.45,42.419 51.222,42.306 50.957,42.191 
			50.661,42.084 50.365,41.964 50.061,41.828 49.773,41.668 49.507,41.471 49.264,41.235 49.074,40.946 48.938,40.604 
			48.869,40.196 48.876,39.71 48.915,39.414 48.969,39.132 49.044,38.874 49.134,38.632 49.256,38.404 49.393,38.207 49.553,38.016 
			49.743,37.851 49.964,37.706 50.206,37.584 50.478,37.471 50.782,37.387 51.125,37.318 51.497,37.265 51.905,37.235 
			52.354,37.227 52.634,37.227 52.892,37.235 53.128,37.243 53.34,37.25 53.53,37.265 53.705,37.28 53.856,37.295 53.993,37.311 
			54.122,37.326 54.229,37.349 54.327,37.364 54.419,37.379 54.495,37.394 54.563,37.402 54.63,37.417 54.691,37.425 54.303,39.139 
					"/>
		<polyline fill="none" stroke="#FFFFFF" stroke-width="0.216" stroke-miterlimit="2.6131" points="54.303,39.139 54.303,39.139 
			54.198,39.132 54.092,39.117 53.993,39.103 53.895,39.087 53.803,39.072 53.705,39.057 53.607,39.042 53.499,39.026 
			53.394,39.012 53.272,39.003 53.135,38.996 52.992,38.988 52.832,38.988 52.657,38.996 52.459,39.012 52.24,39.026 52.24,39.026 
			52.088,39.049 51.944,39.072 51.814,39.117 51.701,39.162 51.594,39.216 51.497,39.276 51.419,39.353 51.35,39.421 51.306,39.504 
			51.268,39.588 51.252,39.679 51.252,39.77 51.275,39.869 51.306,39.967 51.366,40.066 51.442,40.165 51.442,40.165 51.594,40.309 
			51.777,40.423 51.989,40.521 52.217,40.604 52.459,40.681 52.709,40.765 52.96,40.856 53.203,40.954 53.431,41.083 53.644,41.242 
			53.833,41.433 53.993,41.668 54.114,41.956 54.191,42.298 54.22,42.708 54.191,43.187 54.191,43.187 54.138,43.543 54.046,43.854 
			53.924,44.143 53.773,44.393 53.599,44.614 53.4,44.803 53.188,44.97 52.954,45.115 52.709,45.228 52.459,45.326 52.201,45.402 
			51.936,45.463 51.677,45.51 51.428,45.532 51.178,45.547 50.942,45.554 50.942,45.554 50.614,45.554 50.311,45.547 50.045,45.547 
			49.795,45.54 49.567,45.532 49.363,45.516 49.181,45.501 49.006,45.478 48.846,45.463 48.703,45.433 48.558,45.409 48.429,45.373 
			48.299,45.342 48.179,45.295 48.057,45.251 47.928,45.205 48.269,43.528 48.269,43.528 48.338,43.543 48.42,43.566 48.527,43.595 
			48.657,43.627 48.793,43.657 48.945,43.687 49.112,43.725 49.293,43.755 49.484,43.785 49.682,43.816 49.886,43.838 
			50.099,43.861 50.318,43.869 50.541,43.876 50.758,43.876 50.979,43.869 50.979,43.869 51.2,43.824 51.375,43.762 51.51,43.68 
			51.617,43.573 51.693,43.467 51.754,43.344 51.792,43.224 51.822,43.11 51.822,43.11 51.838,42.89 51.77,42.7 51.639,42.547 
			51.45,42.419 51.222,42.306 50.957,42.191 50.661,42.084 50.365,41.964 50.061,41.828 49.773,41.668 49.507,41.471 49.264,41.235 
			49.074,40.946 48.938,40.604 48.869,40.196 48.876,39.71 48.876,39.71 48.915,39.414 48.969,39.132 49.044,38.874 49.134,38.632 
			49.256,38.404 49.393,38.207 49.553,38.016 49.743,37.851 49.964,37.706 50.206,37.584 50.478,37.471 50.782,37.387 
			51.125,37.318 51.497,37.265 51.905,37.235 52.354,37.227 52.354,37.227 52.634,37.227 52.892,37.235 53.128,37.243 53.34,37.25 
			53.53,37.265 53.705,37.28 53.856,37.295 53.993,37.311 54.122,37.326 54.229,37.349 54.327,37.364 54.419,37.379 54.495,37.394 
			54.563,37.402 54.63,37.417 54.691,37.425 54.303,39.139 		"/>
		<polygon fill="#FFFFFF" points="56.103,35.55 58.207,35.55 57.895,37.387 59.163,37.387 58.889,39.103 57.552,39.064 
			56.825,43.299 56.817,43.452 56.854,43.581 56.931,43.68 57.03,43.762 57.167,43.816 57.318,43.861 57.484,43.891 57.667,43.908 
			57.833,43.9 57.985,43.885 58.123,43.861 58.244,43.831 58.343,43.801 58.411,43.778 58.457,43.762 58.471,43.755 58.207,45.167 
			58.153,45.205 58.1,45.235 58.046,45.266 57.994,45.295 57.94,45.318 57.879,45.342 57.812,45.364 57.743,45.387 57.667,45.409 
			57.59,45.425 57.5,45.44 57.41,45.456 57.311,45.472 57.196,45.486 57.074,45.501 56.945,45.516 56.368,45.516 56.064,45.493 
			55.799,45.463 55.557,45.418 55.352,45.364 55.176,45.295 55.033,45.221 54.904,45.129 54.805,45.03 54.729,44.924 54.675,44.795 
			54.638,44.665 54.615,44.522 54.608,44.362 54.608,44.196 54.63,44.021 54.654,43.831 56.103,35.55 		"/>
		<polyline fill="none" stroke="#FFFFFF" stroke-width="0.216" stroke-miterlimit="2.6131" points="56.103,35.55 58.207,35.55 
			57.895,37.387 59.163,37.387 58.889,39.103 57.552,39.064 56.825,43.299 56.825,43.299 56.817,43.452 56.854,43.581 56.931,43.68 
			57.03,43.762 57.167,43.816 57.318,43.861 57.484,43.891 57.667,43.908 57.667,43.908 57.833,43.9 57.985,43.885 58.123,43.861 
			58.244,43.831 58.343,43.801 58.411,43.778 58.457,43.762 58.471,43.755 58.207,45.167 58.207,45.167 58.153,45.205 58.1,45.235 
			58.046,45.266 57.994,45.295 57.94,45.318 57.879,45.342 57.812,45.364 57.743,45.387 57.667,45.409 57.59,45.425 57.5,45.44 
			57.41,45.456 57.311,45.472 57.196,45.486 57.074,45.501 56.945,45.516 56.368,45.516 56.368,45.516 56.064,45.493 55.799,45.463 
			55.557,45.418 55.352,45.364 55.176,45.295 55.033,45.221 54.904,45.129 54.805,45.03 54.729,44.924 54.675,44.795 54.638,44.665 
			54.615,44.522 54.608,44.362 54.608,44.196 54.63,44.021 54.654,43.831 56.103,35.55 		"/>
		<polyline fill="none" stroke="#FFFFFF" stroke-width="0.216" stroke-miterlimit="2.6131" points="60.84,41.964 60.84,41.964 
			60.817,42.092 60.81,42.228 60.825,42.373 60.855,42.518 60.908,42.662 60.97,42.8 61.053,42.943 61.143,43.072 61.25,43.202 
			61.363,43.316 61.485,43.429 61.621,43.52 61.759,43.604 61.91,43.671 62.062,43.725 62.214,43.755 62.214,43.755 62.411,43.785 
			62.601,43.809 62.799,43.831 62.996,43.847 63.193,43.854 63.398,43.854 63.595,43.847 63.8,43.831 64.005,43.801 64.211,43.762 
			64.423,43.717 64.628,43.649 64.841,43.566 65.06,43.474 65.273,43.353 65.493,43.224 65.189,45.092 65.189,45.092 65.067,45.152 
			64.947,45.213 64.825,45.258 64.712,45.305 64.598,45.342 64.475,45.38 64.354,45.409 64.225,45.433 64.088,45.456 63.937,45.472 
			63.778,45.486 63.603,45.501 63.405,45.51 63.202,45.51 62.965,45.516 62.714,45.516 62.714,45.516 62.343,45.51 61.964,45.472 
			61.583,45.418 61.204,45.326 60.833,45.213 60.477,45.068 60.134,44.879 59.815,44.658 59.519,44.4 59.262,44.089 59.042,43.74 
			58.858,43.337 58.73,42.89 58.647,42.38 58.624,41.819 58.662,41.197 58.662,41.197 58.692,40.954 58.737,40.673 58.798,40.378 
			58.881,40.058 58.996,39.733 59.132,39.406 59.306,39.072 59.519,38.753 59.761,38.449 60.057,38.161 60.392,37.903 
			60.771,37.676 61.211,37.485 61.706,37.349 62.25,37.258 62.867,37.227 62.867,37.227 63.163,37.235 63.474,37.265 63.786,37.318 
			64.097,37.394 64.4,37.509 64.697,37.645 64.97,37.827 65.22,38.039 65.447,38.298 65.638,38.602 65.789,38.951 65.896,39.353 
			65.957,39.807 65.964,40.323 65.911,40.9 65.796,41.539 65.759,42.002 60.226,42.002 60.574,40.506 63.899,40.506 63.899,40.506 
			63.915,40.317 63.906,40.135 63.89,39.967 63.861,39.816 63.808,39.672 63.755,39.541 63.679,39.428 63.603,39.322 63.513,39.231 
			63.413,39.155 63.299,39.087 63.185,39.026 63.064,38.981 62.942,38.951 62.813,38.928 62.677,38.912 62.677,38.912 62.532,38.92 
			62.396,38.943 62.267,38.974 62.138,39.019 62.008,39.079 61.896,39.148 61.78,39.231 61.683,39.322 61.583,39.428 61.492,39.541 
			61.41,39.664 61.341,39.794 61.272,39.93 61.219,40.082 61.174,40.233 61.143,40.393 60.84,41.964 		"/>
		<polygon fill="#FFFFFF" points="78.943,37.842 78.845,37.79 78.747,37.743 78.639,37.69 78.526,37.637 78.411,37.592 
			78.284,37.546 78.154,37.5 78.019,37.455 77.874,37.417 77.728,37.387 77.57,37.356 77.411,37.333 77.236,37.318 77.062,37.303 
			76.879,37.303 76.689,37.303 76.5,37.303 76.302,37.318 76.097,37.342 75.885,37.379 75.672,37.439 75.461,37.523 75.248,37.63 
			75.034,37.766 74.83,37.933 74.631,38.13 74.441,38.374 74.261,38.654 74.093,38.988 73.934,39.367 73.79,39.794 73.669,40.279 
			73.622,40.551 73.593,40.817 73.577,41.083 73.586,41.342 73.607,41.6 73.66,41.843 73.729,42.07 73.812,42.298 73.926,42.503 
			74.062,42.7 74.223,42.874 74.405,43.034 74.609,43.171 74.844,43.285 75.103,43.383 75.391,43.452 75.49,43.474 75.605,43.497 
			75.742,43.513 75.893,43.528 76.059,43.543 76.234,43.543 76.423,43.543 76.614,43.528 76.811,43.504 77.008,43.467 
			77.198,43.414 77.388,43.353 77.577,43.269 77.752,43.171 77.911,43.05 78.063,42.913 77.723,44.94 77.676,44.978 77.631,45.023 
			77.57,45.077 77.503,45.121 77.419,45.182 77.312,45.235 77.19,45.289 77.054,45.333 76.879,45.387 76.682,45.425 76.455,45.456 
			76.188,45.486 75.893,45.501 75.55,45.51 75.165,45.501 74.738,45.478 74.389,45.44 74.04,45.364 73.691,45.251 73.342,45.099 
			73.008,44.917 72.688,44.688 72.386,44.423 72.104,44.121 71.853,43.778 71.642,43.399 71.46,42.974 71.324,42.511 71.232,42.002 
			71.201,41.463 71.217,40.871 71.299,40.241 71.361,39.93 71.428,39.626 71.505,39.33 71.582,39.049 71.663,38.783 71.762,38.518 
			71.862,38.268 71.968,38.032 72.083,37.797 72.196,37.576 72.325,37.364 72.461,37.167 72.598,36.977 72.749,36.795 
			72.901,36.628 73.061,36.469 73.235,36.316 73.41,36.172 73.593,36.043 73.783,35.921 73.987,35.808 74.192,35.71 74.405,35.619 
			74.625,35.534 74.861,35.458 75.094,35.398 75.338,35.344 75.597,35.3 75.854,35.261 76.128,35.231 76.401,35.217 76.689,35.208 
			76.934,35.217 77.168,35.231 77.396,35.254 77.623,35.285 77.836,35.314 78.04,35.36 78.238,35.398 78.42,35.443 78.595,35.489 
			78.747,35.534 78.892,35.581 79.012,35.625 79.119,35.663 79.21,35.694 79.278,35.725 79.324,35.74 78.943,37.842 		"/>
		<polyline fill="none" stroke="#FFFFFF" stroke-width="0.216" stroke-miterlimit="2.6131" points="78.943,37.842 78.943,37.842 
			78.845,37.79 78.747,37.743 78.639,37.69 78.526,37.637 78.411,37.592 78.284,37.546 78.154,37.5 78.019,37.455 77.874,37.417 
			77.728,37.387 77.57,37.356 77.411,37.333 77.236,37.318 77.062,37.303 76.879,37.303 76.689,37.303 76.689,37.303 76.5,37.303 
			76.302,37.318 76.097,37.342 75.885,37.379 75.672,37.439 75.461,37.523 75.248,37.63 75.034,37.766 74.83,37.933 74.631,38.13 
			74.441,38.374 74.261,38.654 74.093,38.988 73.934,39.367 73.79,39.794 73.669,40.279 73.669,40.279 73.622,40.551 73.593,40.817 
			73.577,41.083 73.586,41.342 73.607,41.6 73.66,41.843 73.729,42.07 73.812,42.298 73.926,42.503 74.062,42.7 74.223,42.874 
			74.405,43.034 74.609,43.171 74.844,43.285 75.103,43.383 75.391,43.452 75.391,43.452 75.49,43.474 75.605,43.497 75.742,43.513 
			75.893,43.528 76.059,43.543 76.234,43.543 76.423,43.543 76.614,43.528 76.811,43.504 77.008,43.467 77.198,43.414 
			77.388,43.353 77.577,43.269 77.752,43.171 77.911,43.05 78.063,42.913 77.723,44.94 77.723,44.94 77.676,44.978 77.631,45.023 
			77.57,45.077 77.503,45.121 77.419,45.182 77.312,45.235 77.19,45.289 77.054,45.333 76.879,45.387 76.682,45.425 76.455,45.456 
			76.188,45.486 75.893,45.501 75.55,45.51 75.165,45.501 74.738,45.478 74.738,45.478 74.389,45.44 74.04,45.364 73.691,45.251 
			73.342,45.099 73.008,44.917 72.688,44.688 72.386,44.423 72.104,44.121 71.853,43.778 71.642,43.399 71.46,42.974 71.324,42.511 
			71.232,42.002 71.201,41.463 71.217,40.871 71.299,40.241 71.299,40.241 71.361,39.93 71.428,39.626 71.505,39.33 71.582,39.049 
			71.663,38.783 71.762,38.518 71.862,38.268 71.968,38.032 72.083,37.797 72.196,37.576 72.325,37.364 72.461,37.167 
			72.598,36.977 72.749,36.795 72.901,36.628 73.061,36.469 73.235,36.316 73.41,36.172 73.593,36.043 73.783,35.921 73.987,35.808 
			74.192,35.71 74.405,35.619 74.625,35.534 74.861,35.458 75.094,35.398 75.338,35.344 75.597,35.3 75.854,35.261 76.128,35.231 
			76.401,35.217 76.689,35.208 76.689,35.208 76.934,35.217 77.168,35.231 77.396,35.254 77.623,35.285 77.836,35.314 78.04,35.36 
			78.238,35.398 78.42,35.443 78.595,35.489 78.747,35.534 78.892,35.581 79.012,35.625 79.119,35.663 79.21,35.694 79.278,35.725 
			79.324,35.74 78.943,37.842 		"/>
		<polygon fill="#FFFFFF" points="97.632,45.516 95.529,45.516 95.682,44.674 95.682,44.598 95.56,44.75 95.43,44.886 
			95.302,45.007 95.165,45.115 95.029,45.213 94.892,45.295 94.755,45.364 94.611,45.433 94.467,45.486 94.323,45.524 
			94.178,45.562 94.026,45.583 93.875,45.607 93.731,45.623 93.58,45.63 93.428,45.63 93.033,45.6 92.669,45.516 92.334,45.387 
			92.03,45.213 91.757,44.992 91.514,44.735 91.301,44.453 91.119,44.135 90.969,43.792 90.847,43.437 90.763,43.065 90.702,42.677 
			90.68,42.29 90.687,41.896 90.724,41.509 90.793,41.122 90.907,40.673 91.044,40.249 91.204,39.861 91.393,39.497 91.589,39.155 
			91.818,38.851 92.052,38.579 92.304,38.328 92.569,38.107 92.85,37.918 93.139,37.751 93.428,37.622 93.731,37.515 94.034,37.448 
			94.337,37.402 94.648,37.387 94.87,37.394 95.082,37.417 95.28,37.455 95.461,37.509 95.636,37.57 95.789,37.637 95.94,37.721 
			96.077,37.805 96.198,37.894 96.311,37.994 96.41,38.093 96.502,38.191 96.577,38.29 96.646,38.389 96.707,38.48 96.752,38.571 
			96.752,38.571 97.284,35.588 99.348,35.588 97.632,45.516 		"/>
		<polyline fill="none" stroke="#FFFFFF" stroke-width="0.216" stroke-miterlimit="2.6131" points="97.632,45.516 95.529,45.516 
			95.682,44.674 95.682,44.598 95.682,44.598 95.56,44.75 95.43,44.886 95.302,45.007 95.165,45.115 95.029,45.213 94.892,45.295 
			94.755,45.364 94.611,45.433 94.467,45.486 94.323,45.524 94.178,45.562 94.026,45.583 93.875,45.607 93.731,45.623 93.58,45.63 
			93.428,45.63 93.428,45.63 93.033,45.6 92.669,45.516 92.334,45.387 92.03,45.213 91.757,44.992 91.514,44.735 91.301,44.453 
			91.119,44.135 90.969,43.792 90.847,43.437 90.763,43.065 90.702,42.677 90.68,42.29 90.687,41.896 90.724,41.509 90.793,41.122 
			90.793,41.122 90.907,40.673 91.044,40.249 91.204,39.861 91.393,39.497 91.589,39.155 91.818,38.851 92.052,38.579 
			92.304,38.328 92.569,38.107 92.85,37.918 93.139,37.751 93.428,37.622 93.731,37.515 94.034,37.448 94.337,37.402 94.648,37.387 
			94.648,37.387 94.87,37.394 95.082,37.417 95.28,37.455 95.461,37.509 95.636,37.57 95.789,37.637 95.94,37.721 96.077,37.805 
			96.198,37.894 96.311,37.994 96.41,38.093 96.502,38.191 96.577,38.29 96.646,38.389 96.707,38.48 96.752,38.571 96.752,38.571 
			97.284,35.588 99.348,35.588 97.632,45.516 		"/>
		<polygon fill="#FBB231" points="94.193,43.68 94.406,43.665 94.603,43.619 94.786,43.566 94.961,43.482 95.12,43.392 
			95.271,43.277 95.416,43.149 95.545,43.011 95.658,42.859 95.765,42.692 95.863,42.518 95.948,42.336 96.023,42.145 
			96.084,41.949 96.137,41.744 96.175,41.539 96.212,41.327 96.236,41.107 96.236,40.9 96.229,40.689 96.206,40.492 96.175,40.301 
			96.122,40.119 96.061,39.945 95.985,39.794 95.894,39.649 95.796,39.526 95.682,39.421 95.553,39.33 95.416,39.269 95.271,39.231 
			95.113,39.216 94.907,39.231 94.717,39.262 94.542,39.322 94.368,39.398 94.217,39.497 94.064,39.619 93.936,39.748 
			93.806,39.892 93.693,40.058 93.586,40.233 93.486,40.415 93.404,40.612 93.328,40.817 93.268,41.023 93.207,41.242 
			93.162,41.463 93.123,41.797 93.139,42.162 93.191,42.533 93.291,42.89 93.442,43.202 93.64,43.452 93.89,43.619 94.193,43.68 		
			"/>
		<polygon fill="#FFFFFF" points="47.58,43.831 47.275,45.516 45.362,45.516 45.415,45.205 45.455,44.924 45.483,44.712 
			45.514,44.598 45.408,44.719 45.286,44.841 45.143,44.955 44.982,45.061 44.801,45.167 44.611,45.258 44.413,45.349 
			44.208,45.425 43.987,45.493 43.769,45.547 43.547,45.593 43.321,45.623 43.1,45.638 42.881,45.645 42.667,45.623 42.462,45.593 
			42.196,45.524 41.954,45.448 41.741,45.349 41.551,45.235 41.385,45.115 41.234,44.978 41.111,44.833 41.005,44.682 
			40.915,44.522 40.838,44.354 40.778,44.188 40.732,44.021 40.701,43.847 40.679,43.671 40.664,43.504 40.664,43.337 
			40.686,43.041 40.732,42.761 40.808,42.495 40.907,42.237 41.028,41.994 41.164,41.774 41.324,41.562 41.506,41.372 
			41.697,41.197 41.909,41.037 42.129,40.894 42.356,40.771 42.599,40.667 42.85,40.582 43.108,40.514 43.374,40.468 43.388,40.468 
			43.426,40.46 43.48,40.453 43.563,40.446 43.654,40.431 43.76,40.423 43.874,40.408 44.003,40.393 44.132,40.378 44.262,40.363 
			44.399,40.354 44.52,40.339 44.642,40.332 44.754,40.323 44.862,40.317 44.944,40.317 45.12,40.317 45.302,40.323 45.468,40.332 
			45.635,40.332 45.772,40.339 45.879,40.347 45.954,40.354 45.977,40.354 45.992,40.301 46.038,40.165 46.075,40.005 46.09,39.861 
			46.06,39.695 45.992,39.541 45.901,39.406 45.779,39.291 45.635,39.194 45.476,39.125 45.293,39.079 45.097,39.064 44.884,39.057 
			44.655,39.049 44.42,39.049 44.178,39.057 43.928,39.072 43.684,39.094 43.442,39.117 43.207,39.148 42.978,39.178 42.758,39.216 
			42.561,39.253 42.379,39.291 42.212,39.338 42.075,39.383 41.969,39.436 41.885,39.481 42.424,37.652 42.592,37.584 
			42.758,37.523 42.941,37.471 43.123,37.432 43.306,37.394 43.503,37.364 43.7,37.333 43.905,37.318 44.117,37.303 44.337,37.295 
			44.565,37.287 44.801,37.287 45.043,37.287 45.293,37.287 45.56,37.295 45.826,37.303 46.038,37.318 46.266,37.356 46.5,37.41 
			46.743,37.478 46.979,37.57 47.207,37.676 47.434,37.805 47.648,37.948 47.835,38.116 48.004,38.298 48.157,38.502 48.269,38.73 
			48.346,38.974 48.39,39.231 48.39,39.52 48.346,39.823 47.58,43.831 		"/>
		<polyline fill="none" stroke="#FFFFFF" stroke-width="0.216" stroke-miterlimit="2.6131" points="47.58,43.831 47.275,45.516 
			45.362,45.516 45.362,45.516 45.415,45.205 45.455,44.924 45.483,44.712 45.514,44.598 45.514,44.598 45.408,44.719 
			45.286,44.841 45.143,44.955 44.982,45.061 44.801,45.167 44.611,45.258 44.413,45.349 44.208,45.425 43.987,45.493 
			43.769,45.547 43.547,45.593 43.321,45.623 43.1,45.638 42.881,45.645 42.667,45.623 42.462,45.593 42.462,45.593 42.196,45.524 
			41.954,45.448 41.741,45.349 41.551,45.235 41.385,45.115 41.234,44.978 41.111,44.833 41.005,44.682 40.915,44.522 
			40.838,44.354 40.778,44.188 40.732,44.021 40.701,43.847 40.679,43.671 40.664,43.504 40.664,43.337 40.664,43.337 
			40.686,43.041 40.732,42.761 40.808,42.495 40.907,42.237 41.028,41.994 41.164,41.774 41.324,41.562 41.506,41.372 
			41.697,41.197 41.909,41.037 42.129,40.894 42.356,40.771 42.599,40.667 42.85,40.582 43.108,40.514 43.374,40.468 43.374,40.468 
			43.388,40.468 43.426,40.46 43.48,40.453 43.563,40.446 43.654,40.431 43.76,40.423 43.874,40.408 44.003,40.393 44.132,40.378 
			44.262,40.363 44.399,40.354 44.52,40.339 44.642,40.332 44.754,40.323 44.862,40.317 44.944,40.317 44.944,40.317 45.12,40.317 
			45.302,40.323 45.468,40.332 45.635,40.332 45.772,40.339 45.879,40.347 45.954,40.354 45.977,40.354 45.977,40.354 
			45.992,40.301 46.038,40.165 46.075,40.005 46.09,39.861 46.09,39.861 46.06,39.695 45.992,39.541 45.901,39.406 45.779,39.291 
			45.635,39.194 45.476,39.125 45.293,39.079 45.097,39.064 45.097,39.064 44.884,39.057 44.655,39.049 44.42,39.049 44.178,39.057 
			43.928,39.072 43.684,39.094 43.442,39.117 43.207,39.148 42.978,39.178 42.758,39.216 42.561,39.253 42.379,39.291 
			42.212,39.338 42.075,39.383 41.969,39.436 41.885,39.481 42.424,37.652 42.424,37.652 42.592,37.584 42.758,37.523 
			42.941,37.471 43.123,37.432 43.306,37.394 43.503,37.364 43.7,37.333 43.905,37.318 44.117,37.303 44.337,37.295 44.565,37.287 
			44.801,37.287 45.043,37.287 45.293,37.287 45.56,37.295 45.826,37.303 45.826,37.303 46.038,37.318 46.266,37.356 46.5,37.41 
			46.743,37.478 46.979,37.57 47.207,37.676 47.434,37.805 47.648,37.948 47.835,38.116 48.004,38.298 48.157,38.502 48.269,38.73 
			48.346,38.974 48.39,39.231 48.39,39.52 48.346,39.823 47.58,43.831 		"/>
		<polygon fill="#EC1C2E" points="45.75,41.85 45.742,41.812 45.711,41.774 45.666,41.751 45.59,41.736 45.506,41.722 
			45.408,41.713 45.293,41.713 45.179,41.713 45.059,41.722 44.93,41.736 44.809,41.751 44.687,41.767 44.573,41.782 44.466,41.804 
			44.376,41.828 44.292,41.85 44.239,41.865 44.178,41.889 44.095,41.918 44.01,41.956 43.912,42.002 43.813,42.056 43.708,42.108 
			43.609,42.169 43.503,42.245 43.404,42.32 43.312,42.412 43.229,42.503 43.153,42.601 43.1,42.708 43.056,42.829 43.031,42.951 
			43.025,43.209 43.062,43.414 43.138,43.566 43.237,43.68 43.351,43.755 43.48,43.801 43.602,43.824 43.723,43.831 43.95,43.824 
			44.156,43.801 44.353,43.77 44.528,43.725 44.679,43.671 44.823,43.604 44.952,43.535 45.067,43.452 45.166,43.375 45.255,43.285 
			45.332,43.202 45.393,43.11 45.445,43.019 45.493,42.928 45.53,42.844 45.551,42.761 45.613,42.541 45.666,42.29 45.711,42.048 
			45.75,41.85 		"/>
		<polygon fill="#FFFFFF" points="31.607,45.516 29.544,45.516 31.267,35.55 34.856,35.55 35.199,41.463 37.681,35.55 41.431,35.55 
			39.669,45.516 37.604,45.516 38.91,38.07 38.828,38.07 35.737,45.516 33.408,45.516 33.392,45.205 33.339,44.377 33.271,43.202 
			33.194,41.85 33.118,40.492 33.05,39.301 32.997,38.435 32.981,38.07 32.959,38.07 32.914,38.07 32.868,38.07 32.868,38.07 
			31.607,45.516 		"/>
		<polyline fill="none" stroke="#FFFFFF" stroke-width="0.216" stroke-miterlimit="2.6131" points="31.607,45.516 29.544,45.516 
			31.267,35.55 34.856,35.55 35.199,41.463 37.681,35.55 41.431,35.55 39.669,45.516 37.604,45.516 38.91,38.07 38.828,38.07 
			35.737,45.516 33.408,45.516 33.408,45.516 33.392,45.205 33.339,44.377 33.271,43.202 33.194,41.85 33.118,40.492 33.05,39.301 
			32.997,38.435 32.981,38.07 32.981,38.07 32.959,38.07 32.914,38.07 32.868,38.07 32.868,38.07 31.607,45.516 		"/>
		<polygon fill="#FFFFFF" points="85.253,43.831 84.941,45.516 83.036,45.516 83.05,45.205 83.058,44.932 83.058,44.728 
			83.073,44.637 82.975,44.75 82.86,44.864 82.725,44.97 82.572,45.077 82.414,45.175 82.231,45.266 82.04,45.357 81.851,45.433 
			81.646,45.493 81.433,45.554 81.222,45.593 81.009,45.623 80.788,45.638 80.577,45.645 80.371,45.623 80.165,45.593 
			79.893,45.524 79.651,45.448 79.437,45.349 79.239,45.235 79.073,45.115 78.928,44.978 78.807,44.833 78.702,44.682 78.61,44.522 
			78.541,44.354 78.481,44.188 78.443,44.021 78.411,43.847 78.39,43.671 78.373,43.504 78.373,43.337 78.39,43.041 78.436,42.761 
			78.503,42.495 78.603,42.237 78.716,41.994 78.86,41.774 79.02,41.562 79.194,41.372 79.392,41.197 79.597,41.037 79.817,40.894 
			80.053,40.771 80.288,40.667 80.538,40.582 80.788,40.514 81.046,40.468 81.062,40.468 81.099,40.46 81.153,40.453 81.229,40.446 
			81.328,40.431 81.433,40.423 81.548,40.408 81.668,40.393 81.798,40.378 81.935,40.363 82.064,40.354 82.193,40.339 
			82.314,40.332 82.42,40.323 82.527,40.317 82.61,40.317 82.793,40.317 82.975,40.323 83.149,40.332 83.316,40.332 83.461,40.339 
			83.582,40.347 83.65,40.354 83.681,40.354 83.697,40.301 83.719,40.165 83.741,40.005 83.756,39.861 83.727,39.695 83.666,39.541 
			83.568,39.406 83.452,39.291 83.316,39.194 83.157,39.125 82.99,39.079 82.807,39.064 82.594,39.057 82.368,39.049 82.132,39.049 
			81.888,39.057 81.639,39.072 81.396,39.094 81.153,39.117 80.917,39.148 80.689,39.178 80.47,39.216 80.272,39.253 80.09,39.291 
			79.923,39.338 79.787,39.383 79.679,39.436 79.597,39.481 80.128,37.652 80.294,37.584 80.47,37.523 80.645,37.471 80.826,37.432 
			81.016,37.394 81.207,37.364 81.402,37.333 81.609,37.318 81.82,37.303 82.04,37.295 82.261,37.287 82.497,37.287 82.731,37.287 
			82.975,37.287 83.233,37.295 83.491,37.303 83.704,37.318 83.931,37.356 84.166,37.41 84.41,37.478 84.646,37.57 84.879,37.676 
			85.107,37.805 85.32,37.948 85.511,38.116 85.684,38.298 85.836,38.502 85.95,38.73 86.034,38.974 86.088,39.231 86.088,39.52 
			86.049,39.823 85.253,43.831 		"/>
		<polygon fill="#FFFFFF" points="84.941,45.57 84.986,45.524 85.297,43.838 85.206,43.824 84.895,45.51 84.941,45.463 
			84.941,45.57 84.978,45.562 84.986,45.524 84.941,45.57 		"/>
		<polygon fill="#FFFFFF" points="82.99,45.516 83.036,45.57 84.941,45.57 84.941,45.463 83.036,45.463 83.082,45.516 82.99,45.516 
			82.983,45.57 83.036,45.57 82.99,45.516 		"/>
		<polygon fill="#FFFFFF" points="83.112,44.665 83.043,44.605 83.013,44.728 83.004,44.932 83.004,45.205 82.99,45.516 
			83.082,45.516 83.096,45.205 83.112,44.932 83.104,44.728 83.104,44.665 83.036,44.605 83.112,44.665 		"/>
		<polygon fill="#FFFFFF" points="80.159,45.638 80.159,45.638 80.371,45.668 80.577,45.69 80.788,45.684 81.009,45.668 
			81.229,45.638 81.441,45.6 81.654,45.54 81.866,45.478 82.056,45.402 82.253,45.312 82.437,45.221 82.594,45.115 82.754,45.007 
			82.89,44.902 83.013,44.78 83.112,44.665 83.036,44.605 82.937,44.719 82.831,44.826 82.693,44.932 82.55,45.039 82.39,45.129 
			82.208,45.221 82.026,45.312 81.836,45.387 81.639,45.448 81.426,45.51 81.213,45.547 81.009,45.577 80.788,45.593 80.577,45.6 
			80.371,45.577 80.174,45.547 80.174,45.547 80.159,45.638 		"/>
		<polygon fill="#FFFFFF" points="78.322,43.337 78.322,43.337 78.329,43.504 78.344,43.671 78.368,43.854 78.398,44.029 
			78.436,44.196 78.497,44.37 78.564,44.544 78.664,44.704 78.769,44.864 78.892,45.007 79.043,45.152 79.217,45.273 79.415,45.395 
			79.636,45.493 79.885,45.57 80.159,45.638 80.174,45.547 79.9,45.478 79.665,45.402 79.46,45.305 79.262,45.197 79.103,45.077 
			78.966,44.947 78.845,44.803 78.738,44.658 78.656,44.499 78.588,44.34 78.526,44.182 78.489,44.014 78.459,43.838 78.436,43.671 
			78.42,43.504 78.428,43.337 78.428,43.337 78.322,43.337 		"/>
		<polygon fill="#FFFFFF" points="81.046,40.423 81.046,40.423 80.781,40.468 80.523,40.537 80.272,40.62 80.03,40.727 
			79.794,40.848 79.567,41 79.361,41.16 79.164,41.342 78.982,41.531 78.822,41.744 78.67,41.972 78.557,42.223 78.459,42.48 
			78.39,42.753 78.344,43.041 78.322,43.337 78.428,43.337 78.436,43.041 78.481,42.769 78.549,42.511 78.648,42.252 78.761,42.017 
			78.897,41.804 79.058,41.592 79.224,41.403 79.421,41.235 79.627,41.075 79.838,40.939 80.076,40.817 80.302,40.712 
			80.553,40.628 80.796,40.56 81.046,40.514 81.046,40.514 81.046,40.423 		"/>
		<polygon fill="#FFFFFF" points="82.61,40.263 82.61,40.263 82.527,40.263 82.42,40.279 82.314,40.288 82.193,40.294 
			82.064,40.309 81.935,40.317 81.798,40.332 81.668,40.347 81.548,40.363 81.433,40.378 81.328,40.385 81.229,40.401 
			81.153,40.408 81.092,40.415 81.062,40.423 81.046,40.423 81.046,40.514 81.062,40.514 81.107,40.506 81.153,40.499 
			81.229,40.492 81.328,40.477 81.433,40.468 81.548,40.453 81.668,40.437 81.798,40.423 81.935,40.408 82.064,40.401 
			82.193,40.385 82.314,40.378 82.42,40.37 82.527,40.37 82.61,40.37 82.61,40.37 82.61,40.263 		"/>
		<polygon fill="#FFFFFF" points="83.635,40.347 83.681,40.309 83.65,40.309 83.582,40.301 83.461,40.294 83.316,40.279 
			83.149,40.279 82.975,40.279 82.793,40.263 82.61,40.263 82.61,40.37 82.793,40.37 82.975,40.37 83.149,40.385 83.316,40.385 
			83.461,40.385 83.582,40.393 83.65,40.401 83.681,40.401 83.727,40.363 83.681,40.401 83.719,40.408 83.727,40.363 83.635,40.347 
					"/>
		<polygon fill="#FFFFFF" points="83.711,39.861 83.704,39.861 83.697,40.005 83.672,40.157 83.65,40.294 83.635,40.347 
			83.727,40.363 83.741,40.309 83.764,40.171 83.786,40.005 83.809,39.861 83.802,39.861 83.711,39.861 		"/>
		<polygon fill="#FFFFFF" points="82.807,39.11 82.807,39.117 82.983,39.125 83.142,39.171 83.293,39.239 83.422,39.33 
			83.528,39.436 83.619,39.565 83.681,39.702 83.711,39.861 83.802,39.861 83.771,39.687 83.711,39.52 83.604,39.376 83.484,39.253 
			83.339,39.148 83.172,39.079 82.997,39.035 82.807,39.012 82.807,39.019 82.807,39.11 		"/>
		<polygon fill="#FFFFFF" points="79.551,39.475 79.627,39.52 79.703,39.481 79.801,39.428 79.932,39.383 80.097,39.338 
			80.281,39.301 80.477,39.262 80.697,39.224 80.917,39.194 81.153,39.162 81.396,39.139 81.639,39.117 81.888,39.103 
			82.132,39.103 82.368,39.103 82.594,39.103 82.807,39.11 82.807,39.019 82.594,39.012 82.368,38.996 82.132,38.996 81.888,39.012 
			81.639,39.026 81.396,39.049 81.153,39.072 80.917,39.103 80.682,39.132 80.461,39.171 80.265,39.209 80.082,39.247 
			79.915,39.291 79.771,39.338 79.658,39.39 79.567,39.444 79.643,39.489 79.551,39.475 		"/>
		<polygon fill="#FFFFFF" points="80.114,37.606 80.082,37.645 79.551,39.475 79.643,39.489 80.174,37.659 80.143,37.698 
			80.114,37.606 80.09,37.614 80.082,37.645 80.114,37.606 		"/>
		<polygon fill="#FFFFFF" points="83.491,37.258 83.491,37.258 83.233,37.243 82.975,37.235 82.731,37.235 82.497,37.235 
			82.261,37.235 82.04,37.25 81.82,37.258 81.609,37.274 81.402,37.287 81.198,37.318 81.009,37.349 80.819,37.387 80.636,37.425 
			80.455,37.478 80.281,37.539 80.114,37.606 80.143,37.698 80.311,37.63 80.484,37.57 80.651,37.515 80.835,37.478 81.025,37.439 
			81.213,37.41 81.402,37.379 81.609,37.364 81.82,37.349 82.04,37.342 82.261,37.342 82.497,37.342 82.731,37.342 82.975,37.342 
			83.233,37.349 83.491,37.349 83.491,37.349 83.491,37.258 		"/>
		<polygon fill="#FFFFFF" points="86.095,39.831 86.095,39.831 86.132,39.52 86.132,39.231 86.08,38.965 85.996,38.715 
			85.874,38.48 85.721,38.268 85.54,38.078 85.351,37.911 85.13,37.766 84.902,37.63 84.66,37.523 84.424,37.432 84.175,37.364 
			83.938,37.311 83.704,37.274 83.491,37.258 83.491,37.349 83.704,37.364 83.923,37.402 84.159,37.455 84.393,37.523 84.63,37.614 
			84.857,37.721 85.085,37.842 85.29,37.986 85.48,38.153 85.646,38.328 85.798,38.524 85.904,38.747 85.988,38.981 86.041,39.231 
			86.041,39.52 86.003,39.816 86.003,39.816 86.095,39.831 		"/>
		<polygon fill="#FFFFFF" points="85.297,43.838 85.297,43.838 86.095,39.831 86.003,39.816 85.206,43.824 85.206,43.824 
			85.297,43.838 		"/>
		<polygon fill="#FBB231" points="83.415,41.85 83.4,41.804 83.371,41.767 83.316,41.744 83.241,41.722 83.157,41.713 
			83.058,41.705 82.944,41.705 82.831,41.713 82.709,41.728 82.587,41.744 82.466,41.759 82.351,41.774 82.24,41.797 82.14,41.812 
			82.04,41.835 81.965,41.85 81.913,41.857 81.851,41.88 81.776,41.903 81.691,41.934 81.592,41.978 81.503,42.025 81.396,42.078 
			81.297,42.145 81.198,42.214 81.099,42.298 81.016,42.38 80.933,42.48 80.864,42.586 80.811,42.7 80.766,42.822 80.744,42.951 
			80.736,43.209 80.771,43.414 80.835,43.566 80.925,43.68 81.039,43.755 81.169,43.801 81.297,43.824 81.426,43.831 81.654,43.824 
			81.866,43.801 82.064,43.762 82.24,43.71 82.405,43.649 82.55,43.581 82.686,43.504 82.807,43.414 82.915,43.33 83.004,43.232 
			83.088,43.14 83.157,43.041 83.21,42.951 83.248,42.859 83.279,42.769 83.301,42.685 83.332,42.472 83.371,42.252 83.4,42.04 
			83.415,41.85 		"/>
		<polygon fill="#FFFFFF" points="99.051,44.478 99.068,44.302 99.126,44.097 99.233,43.915 99.362,43.755 99.522,43.627 
			99.706,43.535 99.903,43.474 100.114,43.452 100.328,43.474 100.524,43.535 100.707,43.627 100.867,43.755 100.996,43.915 
			101.102,44.097 101.162,44.302 101.178,44.478 100.95,44.478 100.943,44.34 100.896,44.172 100.82,44.021 100.722,43.891 
			100.601,43.785 100.457,43.71 100.29,43.657 100.114,43.641 99.94,43.657 99.774,43.71 99.629,43.785 99.507,43.891 
			99.409,44.021 99.333,44.172 99.288,44.34 99.272,44.478 99.051,44.478 		"/>
		<polygon fill="#FFFFFF" points="99.735,44.478 99.735,44.021 100.152,44.021 100.244,44.029 100.328,44.043 100.388,44.066 
			100.441,44.097 100.479,44.143 100.509,44.188 100.524,44.241 100.532,44.294 100.524,44.362 100.509,44.416 100.487,44.461 
			100.471,44.478 100.152,44.478 100.182,44.469 100.236,44.461 100.281,44.447 100.32,44.431 100.35,44.409 100.366,44.385 
			100.38,44.348 100.38,44.294 100.372,44.256 100.357,44.226 100.336,44.211 100.312,44.196 100.273,44.188 100.236,44.182 
			100.198,44.182 100.152,44.182 99.925,44.182 99.925,44.478 99.735,44.478 		"/>
		<polygon fill="#FFFFFF" points="99.051,44.478 99.045,44.522 99.068,44.742 99.126,44.947 99.233,45.129 99.362,45.281 
			99.522,45.409 99.706,45.51 99.903,45.57 100.114,45.593 100.328,45.57 100.524,45.51 100.707,45.409 100.867,45.281 
			100.996,45.129 101.102,44.947 101.162,44.742 101.184,44.522 101.178,44.478 100.95,44.478 100.957,44.522 100.943,44.704 
			100.896,44.872 100.82,45.016 100.722,45.144 100.601,45.251 100.457,45.333 100.29,45.387 100.114,45.402 99.94,45.387 
			99.774,45.333 99.629,45.251 99.507,45.144 99.409,45.016 99.333,44.872 99.288,44.704 99.272,44.522 99.272,44.478 
			99.051,44.478 		"/>
		<polygon fill="#FFFFFF" points="99.735,44.478 99.735,44.94 99.925,44.94 99.925,44.561 100.114,44.561 100.341,44.94 
			100.495,44.94 100.267,44.561 100.32,44.561 100.372,44.544 100.418,44.529 100.457,44.499 100.471,44.478 100.152,44.478 
			100.114,44.484 99.925,44.484 99.925,44.478 99.735,44.478 		"/>
		<path fill="none" stroke="#FFFFFF" stroke-width="0.216" stroke-miterlimit="2.6131" d="M99.045,44.522L99.045,44.522l0.024-0.22
			l0.058-0.205l0.107-0.182l0.129-0.159l0.16-0.128l0.183-0.092l0.197-0.062l0.211-0.022l0,0l0.213,0.022l0.197,0.062l0.183,0.092
			l0.16,0.128l0.129,0.159l0.106,0.182l0.06,0.205l0.022,0.22l0,0l-0.022,0.22l-0.06,0.205l-0.106,0.183l-0.129,0.152l-0.16,0.128
			l-0.183,0.101l-0.197,0.06l-0.213,0.023l0,0l-0.211-0.023l-0.197-0.06l-0.183-0.101l-0.16-0.128l-0.129-0.152l-0.107-0.183
			l-0.058-0.205L99.045,44.522 M99.925,44.94h-0.19v-0.919h0.417l0,0l0.092,0.007l0.083,0.015l0.06,0.023l0.053,0.03l0.038,0.046
			l0.03,0.046l0.015,0.052l0.008,0.054l0,0l-0.008,0.068l-0.015,0.053l-0.022,0.046l-0.03,0.038l-0.039,0.03l-0.046,0.015
			l-0.052,0.016h-0.053l0.228,0.379h-0.153l-0.227-0.379h-0.189L99.925,44.94 M100.114,44.484L100.114,44.484l0.068-0.016
			l0.054-0.007l0.045-0.015l0.039-0.016l0.03-0.023l0.016-0.024l0.014-0.037v-0.054l0,0l-0.008-0.038l-0.015-0.031l-0.021-0.015
			l-0.024-0.015l-0.038-0.007l-0.037-0.007h-0.038h-0.046h-0.227v0.303h0.188 M100.114,45.402L100.114,45.402l0.175-0.015
			l0.167-0.054l0.145-0.083l0.121-0.107l0.099-0.127l0.076-0.145l0.047-0.167l0.015-0.182l0,0l-0.015-0.182l-0.047-0.167
			l-0.076-0.151l-0.099-0.13l-0.121-0.106l-0.145-0.075l-0.167-0.053l-0.175-0.016l0,0l-0.174,0.016l-0.167,0.053l-0.144,0.075
			l-0.123,0.106l-0.098,0.13l-0.075,0.151l-0.046,0.167l-0.016,0.182l0,0l0.016,0.182l0.046,0.167l0.075,0.145l0.098,0.127
			l0.123,0.107l0.144,0.083l0.167,0.054L100.114,45.402"/>
		<polygon fill="#FFFFFF" points="85.822,45.516 87.963,45.516 87.963,45.516 88.729,41.197 88.759,41.031 88.805,40.863 
			88.85,40.696 88.911,40.529 88.987,40.363 89.078,40.203 89.177,40.051 89.298,39.907 89.435,39.778 89.586,39.656 89.761,39.541 
			89.958,39.451 90.178,39.376 90.421,39.315 90.687,39.269 90.982,39.253 91.09,39.253 91.15,39.253 91.172,39.253 91.172,39.253 
			91.514,37.303 91.301,37.318 91.097,37.342 90.907,37.379 90.724,37.432 90.558,37.492 90.398,37.57 90.246,37.652 90.102,37.743 
			89.966,37.851 89.836,37.956 89.715,38.078 89.594,38.199 89.479,38.328 89.366,38.472 89.253,38.608 89.147,38.761 
			89.374,37.387 87.241,37.387 85.822,45.516 85.822,45.516 		"/>
		<polyline fill="none" stroke="#FFFFFF" stroke-width="0.216" stroke-miterlimit="2.6131" points="85.822,45.516 87.963,45.516 
			87.963,45.516 88.729,41.197 88.729,41.197 88.759,41.031 88.805,40.863 88.85,40.696 88.911,40.529 88.987,40.363 89.078,40.203 
			89.177,40.051 89.298,39.907 89.435,39.778 89.586,39.656 89.761,39.541 89.958,39.451 90.178,39.376 90.421,39.315 
			90.687,39.269 90.982,39.253 90.982,39.253 91.09,39.253 91.15,39.253 91.172,39.253 91.172,39.253 91.514,37.303 91.514,37.303 
			91.301,37.318 91.097,37.342 90.907,37.379 90.724,37.432 90.558,37.492 90.398,37.57 90.246,37.652 90.102,37.743 89.966,37.851 
			89.836,37.956 89.715,38.078 89.594,38.199 89.479,38.328 89.366,38.472 89.253,38.608 89.147,38.761 89.374,37.387 
			87.241,37.387 85.822,45.516 85.822,45.516 		"/>
		<polygon fill="#FFFFFF" points="65.721,45.516 67.861,45.516 67.899,45.516 68.628,41.197 68.659,41.031 68.696,40.871 
			68.734,40.712 68.788,40.56 68.848,40.408 68.924,40.263 69.015,40.127 69.121,39.998 69.243,39.883 69.379,39.77 69.547,39.679 
			69.729,39.596 69.941,39.526 70.177,39.467 70.435,39.428 70.73,39.406 70.754,39.406 70.784,39.414 70.822,39.421 70.86,39.421 
			70.897,39.428 70.929,39.436 70.95,39.444 70.958,39.444 70.966,39.414 70.989,39.322 71.019,39.186 71.058,39.019 71.11,38.821 
			71.164,38.608 71.232,38.396 71.299,38.183 71.361,38.039 71.437,37.894 71.513,37.751 71.588,37.622 71.656,37.509 71.71,37.417 
			71.748,37.364 71.762,37.342 71.756,37.342 71.725,37.333 71.688,37.326 71.634,37.318 71.582,37.318 71.521,37.311 
			71.467,37.303 71.414,37.303 71.178,37.318 70.966,37.342 70.769,37.379 70.587,37.425 70.413,37.485 70.253,37.562 
			70.108,37.637 69.971,37.728 69.843,37.827 69.721,37.941 69.607,38.055 69.494,38.183 69.379,38.313 69.273,38.458 69.16,38.608 
			69.045,38.761 69.318,37.387 67.14,37.387 65.721,45.516 65.721,45.516 		"/>
		<polyline fill="none" stroke="#FFFFFF" stroke-width="0.216" stroke-miterlimit="2.6131" points="65.721,45.516 67.861,45.516 
			67.899,45.516 68.628,41.197 68.628,41.197 68.659,41.031 68.696,40.871 68.734,40.712 68.788,40.56 68.848,40.408 68.924,40.263 
			69.015,40.127 69.121,39.998 69.243,39.883 69.379,39.77 69.547,39.679 69.729,39.596 69.941,39.526 70.177,39.467 70.435,39.428 
			70.73,39.406 70.73,39.406 70.754,39.406 70.784,39.414 70.822,39.421 70.86,39.421 70.897,39.428 70.929,39.436 70.95,39.444 
			70.958,39.444 70.958,39.444 70.966,39.414 70.989,39.322 71.019,39.186 71.058,39.019 71.11,38.821 71.164,38.608 71.232,38.396 
			71.299,38.183 71.299,38.183 71.361,38.039 71.437,37.894 71.513,37.751 71.588,37.622 71.656,37.509 71.71,37.417 71.748,37.364 
			71.762,37.342 71.762,37.342 71.756,37.342 71.725,37.333 71.688,37.326 71.634,37.318 71.582,37.318 71.521,37.311 
			71.467,37.303 71.414,37.303 71.414,37.303 71.178,37.318 70.966,37.342 70.769,37.379 70.587,37.425 70.413,37.485 
			70.253,37.562 70.108,37.637 69.971,37.728 69.843,37.827 69.721,37.941 69.607,38.055 69.494,38.183 69.379,38.313 
			69.273,38.458 69.16,38.608 69.045,38.761 69.318,37.387 67.14,37.387 65.721,45.516 65.721,45.516 		"/>
		<polygon fill="#FBB231" points="99.068,53.502 99.068,53.471 99.126,53.274 99.233,53.1 99.362,52.948 99.522,52.827 
			99.706,52.735 99.903,52.683 100.114,52.659 100.328,52.683 100.524,52.735 100.707,52.827 100.867,52.948 100.996,53.1 
			101.102,53.274 101.162,53.471 101.162,53.502 100.943,53.502 100.896,53.344 100.82,53.199 100.722,53.069 100.601,52.963 
			100.457,52.879 100.29,52.827 100.114,52.811 99.94,52.827 99.774,52.879 99.629,52.963 99.507,53.069 99.409,53.199 
			99.333,53.344 99.288,53.502 99.068,53.502 		"/>
		<polygon fill="#FBB231" points="99.735,53.502 99.735,53.237 100.152,53.237 100.244,53.237 100.328,53.252 100.388,53.266 
			100.441,53.296 100.479,53.335 100.509,53.381 100.524,53.434 100.532,53.502 100.38,53.502 100.38,53.464 100.372,53.426 
			100.357,53.395 100.336,53.381 100.312,53.365 100.273,53.357 100.236,53.351 100.198,53.351 100.152,53.351 99.925,53.351 
			99.925,53.502 99.735,53.502 		"/>
		<polygon fill="#FBB231" points="99.045,53.668 99.068,53.502 99.288,53.502 99.288,53.509 99.272,53.668 99.045,53.668 		"/>
		<polygon fill="#FBB231" points="99.735,53.668 99.735,53.502 99.925,53.502 99.925,53.653 100.114,53.653 100.182,53.639 
			100.236,53.631 100.281,53.615 100.32,53.601 100.35,53.578 100.366,53.555 100.38,53.518 100.38,53.502 100.532,53.502 
			100.532,53.502 100.524,53.555 100.509,53.601 100.487,53.639 100.457,53.668 99.735,53.668 		"/>
		<polygon fill="#FBB231" points="100.957,53.668 100.943,53.509 100.943,53.502 101.162,53.502 101.184,53.668 100.957,53.668 		
			"/>
		<polygon fill="#FBB231" points="99.045,53.668 99.045,53.691 99.068,53.911 99.126,54.116 99.233,54.299 99.362,54.458 
			99.522,54.588 99.706,54.678 99.903,54.739 100.114,54.762 100.328,54.739 100.524,54.678 100.707,54.588 100.867,54.458 
			100.996,54.299 101.102,54.116 101.162,53.911 101.184,53.691 101.184,53.668 100.957,53.668 100.957,53.691 100.943,53.874 
			100.896,54.041 100.82,54.185 100.722,54.312 100.601,54.421 100.457,54.504 100.29,54.557 100.114,54.572 99.94,54.557 
			99.774,54.504 99.629,54.421 99.507,54.312 99.409,54.185 99.333,54.041 99.288,53.874 99.272,53.691 99.272,53.668 
			99.045,53.668 		"/>
		<polygon fill="#FBB231" points="99.735,53.668 99.735,54.109 99.925,54.109 99.925,53.729 100.114,53.729 100.341,54.109 
			100.495,54.109 100.267,53.729 100.32,53.729 100.372,53.715 100.418,53.699 100.457,53.668 100.457,53.668 99.735,53.668 		"/>
		<path fill="#FFFFFF" d="M65.957,39.807l-0.061-0.454l-0.107-0.403l-0.151-0.349l-0.19-0.304l-0.227-0.259l-0.25-0.212
			l-0.273-0.182L64.4,37.509l-0.303-0.115l-0.311-0.076l-0.312-0.053l-0.311-0.03l-0.296-0.008l-0.616,0.032l-0.545,0.09
			l-0.495,0.137l-0.439,0.19l-0.379,0.228l-0.335,0.258l-0.296,0.288l-0.242,0.304l-0.213,0.319l-0.174,0.333l-0.136,0.327
			l-0.115,0.325l-0.083,0.32l-0.062,0.295l-0.044,0.281l-0.03,0.243l-0.039,0.622l0.023,0.561l0.083,0.509l0.128,0.448l0.184,0.402
			l0.22,0.35l0.257,0.311l0.296,0.258l0.319,0.221l0.343,0.189l0.356,0.146l0.372,0.113l0.379,0.092l0.381,0.054l0.378,0.038
			l0.372,0.006h0.25l0.237-0.006h0.204l0.198-0.009l0.175-0.015l0.159-0.015l0.151-0.016l0.137-0.023l0.129-0.024l0.121-0.029
			l0.123-0.039l0.114-0.037l0.113-0.047l0.122-0.044l0.12-0.062l0.123-0.06l0.303-1.868l-0.22,0.129l-0.213,0.12l-0.219,0.092
			l-0.214,0.083l-0.205,0.068l-0.212,0.045l-0.206,0.039l-0.205,0.03l-0.205,0.016l-0.197,0.007h-0.206l-0.197-0.007l-0.197-0.016
			L62.6,43.807l-0.19-0.023l-0.197-0.03l-0.152-0.031L61.91,43.67l-0.151-0.067l-0.138-0.084l-0.136-0.09l-0.123-0.113l-0.113-0.115
			l-0.106-0.13l-0.09-0.128L60.97,42.8l-0.062-0.138l-0.053-0.145l-0.03-0.145l-0.015-0.145l0.006-0.128L60.835,42h4.924
			l0.038-0.463l0.115-0.639l0.053-0.577L65.957,39.807z M63.899,40.506h-2.773l0.003-0.006l-0.005-0.001l0.02-0.106l0.031-0.159
			l0.045-0.152l0.053-0.151l0.069-0.136l0.069-0.13l0.083-0.123l0.091-0.113l0.1-0.106l0.097-0.091l0.116-0.083l0.112-0.069
			l0.13-0.061l0.129-0.044l0.129-0.031l0.136-0.023l0.145-0.008l0.137,0.016l0.129,0.023l0.122,0.031l0.121,0.044l0.114,0.061
			l0.114,0.068l0.1,0.076l0.09,0.091l0.076,0.106l0.077,0.113l0.053,0.13l0.053,0.145l0.029,0.151l0.016,0.167l0.009,0.182
			L63.899,40.506z"/>
	</g>
</g>
<g display="none">
	<path display="inline" fill="#F9F9F9" d="M127.716,74.881c0,2.309-1.873,4.18-4.181,4.18H6.466c-2.308,0-4.182-1.871-4.182-4.18
		V4.847c0-2.309,1.873-4.18,4.182-4.18h117.069c2.308,0,4.181,1.871,4.181,4.18V74.881z"/>
	<g display="inline">
		<path fill="#FFFFFF" d="M41.201,38.039v-1.254L40.6,38.039h-5.193l-0.651-1.346v1.346H25.05l-1.148-2.715h-1.943l-1.213,2.715
			h-5.037v-8.195l3.692-8.348h7.064l0.992,2.365v-2.348h8.641l1.899,3.982l1.857-4h27.275c0,0,1.43-0.019,2.369,0.643l-0.003-0.643
			h6.87V22.4c0,0,1.235-0.904,3.062-0.904c1.827,0,12.125,0,12.125,0l1.065,2.4v-2.4h7.77l1.41,2.4v-2.4h7.428v16.559h-7.631
			L99.8,35.168v2.871h-9.484l-1.335-2.957h-1.858l-1.253,2.957h-5.738c0,0-2.14-0.027-3.746-1.176c0,0.602,0,1.176,0,1.176H64.958
			c0,0,0-3.301,0-3.863c0-0.561-0.431-0.522-0.431-0.522h-0.416v4.385H41.201z"/>
		<path fill="#FFFFFF" d="M35.5,41.625h15.017l2.165,2.453l2.217-2.453h11.546c0,0,1.084,0.027,2.115,0.576v-0.576
			c0,0,8.976,0,10.28,0c1.305,0,2.402,0.652,2.402,0.652v-0.652h13.215v0.602c0,0,0.939-0.602,2.205-0.602c1.264,0,8.61,0,8.61,0
			v0.602c0,0,1.084-0.602,2.23-0.602c1.148,0,6.758,0,6.758,0v15.604c0,0-0.887,1.006-2.726,1.006h-8.912v-0.496
			c0,0-0.847,0.496-2.139,0.496c-1.291,0-23.673,0-23.673,0s0-3.633,0-4.033c0-0.396-0.174-0.469-0.527-0.469h-0.327v4.502H68.56
			V53.76c0,0-0.822,0.441-2.191,0.441c-1.371,0-2.662,0-2.662,0v4.033h-9.119l-2.076-2.531l-2.217,2.531H35.5V41.625z"/>
		<polygon fill="#0078A9" points="82.826,44.115 92.249,44.115 92.249,46.642 85.711,46.642 85.711,48.845 92.066,48.845 
			92.066,51.072 85.711,51.072 85.711,53.39 92.249,53.39 92.249,55.855 82.826,55.855 		"/>
		<path fill="#0078A9" d="M110.454,48.689c3.543,0.182,3.838,1.951,3.838,3.838c0,2.199-1.809,3.381-3.694,3.381h-6.055V53.39h4.718
			c0.799,0,1.991,0,1.991-1.127c0-0.535-0.209-0.877-1.062-0.967c-0.378-0.055-1.779-0.133-1.991-0.137
			c-3.2-0.084-3.945-1.676-3.945-3.613c0-2.201,1.547-3.404,3.435-3.404h6.055v2.516h-4.432c-1.007,0.01-2.094-0.119-2.094,1.02
			c0,0.721,0.535,0.865,1.217,0.932C108.671,48.609,110.242,48.691,110.454,48.689z"/>
		<path fill="#0078A9" d="M99.602,48.689c3.543,0.182,3.839,1.951,3.839,3.838c0,2.199-1.808,3.381-3.695,3.381h-6.054V53.39h4.718
			c0.799,0,1.993,0,1.993-1.127c0-0.535-0.211-0.877-1.063-0.967c-0.38-0.055-1.782-0.133-1.992-0.137
			c-3.2-0.084-3.943-1.676-3.943-3.613c0-2.201,1.545-3.404,3.433-3.404h6.054v2.516h-4.429c-1.01,0.01-2.097-0.119-2.097,1.02
			c0,0.721,0.537,0.865,1.219,0.932C97.819,48.609,99.393,48.691,99.602,48.689z"/>
		<path fill="#0078A9" d="M65.425,44.14H55.309l-3.302,3.643l-3.196-3.668H37.45v11.74h10.995l3.459-3.879l3.381,3.906h5.53v-3.986
			h3.878c1.495,0,4.22-0.051,4.22-4.166C68.911,44.795,66.841,44.14,65.425,44.14z M46.937,53.39h-6.644v-2.318h6.356v-2.227h-6.356
			v-2.203l7.01,0.016l2.806,3.195L46.937,53.39z M57.957,54.754l-4.141-4.9l4.141-4.586V54.754z M64.456,49.478h-3.59V46.66h3.6
			c1.206,0,1.587,0.773,1.587,1.35C66.053,48.797,65.634,49.478,64.456,49.478z"/>
		<path fill="#0078A9" d="M79.348,50.535c1.573-0.785,1.993-1.834,1.993-3.25c0-2.514-2.043-3.143-3.46-3.143h-7.493v11.74h2.882
			V51.74h3.774c0.995,0,1.388,0.996,1.413,1.992l0.079,2.15h2.805l-0.105-2.412C81.236,51.582,80.713,50.691,79.348,50.535z
			 M76.859,49.32H73.27v-2.66h3.602c1.206,0,1.585,0.773,1.585,1.35C78.457,48.795,78.039,49.32,76.859,49.32z"/>
		<rect x="71.542" y="23.847" fill="#0078A9" width="2.883" height="11.754"/>
		<polygon fill="#0078A9" points="47.946,23.861 57.366,23.861 57.366,26.388 50.83,26.388 50.83,28.591 57.183,28.591 
			57.183,30.818 50.83,30.818 50.83,33.136 57.366,33.136 57.366,35.601 47.946,35.601 		"/>
		<path fill="#0078A9" d="M68.04,30.254c1.574-0.783,1.993-1.834,1.993-3.25c0-2.516-2.044-3.142-3.461-3.142h-7.493v11.74h2.883
			v-4.141h3.772c0.998,0,1.39,0.994,1.416,1.99l0.08,2.15h2.804l-0.105-2.412C69.928,31.302,69.403,30.412,68.04,30.254z
			 M65.551,29.039h-3.59v-2.66h3.603c1.206,0,1.585,0.774,1.585,1.35C67.148,28.515,66.73,29.039,65.551,29.039z"/>
		<path fill="#0078A9" d="M41.298,23.861l-3.537,7.875l-3.525-7.875h-4.52v11.307l-5.032-11.307H20.87l-5.137,11.74h3.041
			l1.125-2.621h5.754l1.141,2.621h5.804v-8.715l3.851,8.715h2.622l3.944-8.57v8.57h2.883v-11.74
			C45.898,23.861,41.298,23.861,41.298,23.861z M20.988,30.447l1.719-4.104l1.791,4.104H20.988z"/>
		<path fill="#0078A9" d="M104.17,23.855v8.129l-4.86-8.129h-4.26V34.88l-4.912-11.019h-3.814l-3.971,9.094c0,0-1.677,0-1.846-0.041
			c-0.697-0.143-1.781-0.633-1.795-2.703v-0.852c0-2.752,1.495-2.953,3.41-2.953h1.78v-2.551h-3.764c-1.311,0-4.161,1-4.257,5.822
			c-0.066,3.25,1.349,5.93,4.545,5.93h3.801l1.126-2.621h5.753l1.139,2.621h5.687v-8.598l5.188,8.598h3.931V23.855H104.17z
			 M86.465,30.453l1.716-4.104l1.808,4.104H86.465z"/>
	</g>
</g>
<g display="none">
	<path display="inline" fill="#F9F9F9" d="M127.715,74.88c0,2.309-1.873,4.182-4.181,4.182H6.466c-2.308,0-4.181-1.873-4.181-4.182
		V4.848c0-2.311,1.874-4.182,4.181-4.182h117.068c2.308,0,4.181,1.871,4.181,4.182C127.715,4.848,127.715,74.88,127.715,74.88z"/>
	<path display="inline" fill="#F58220" d="M36.763,79.061h86.771c2.308,0,4.181-1.873,4.181-4.182V45.526
		C119.387,50.805,87.99,69.007,36.763,79.061z"/>
	<g display="inline">
		
			<radialGradient id="SVGID_1_" cx="416.068" cy="269.555" r="6.1809" gradientTransform="matrix(1 0 0 -1 -349.544 309.423)" gradientUnits="userSpaceOnUse">
			<stop  offset="0.0056" style="stop-color:#FFEEE0"/>
			<stop  offset="0.1096" style="stop-color:#FEE9D7"/>
			<stop  offset="0.2793" style="stop-color:#FDDBBF"/>
			<stop  offset="0.4935" style="stop-color:#FBC597"/>
			<stop  offset="0.744" style="stop-color:#F8A560"/>
			<stop  offset="1" style="stop-color:#F48120"/>
		</radialGradient>
		<path fill="url(#SVGID_1_)" d="M66.532,33.758c-3.456,0-6.259,2.699-6.259,6.031c0,3.543,2.681,6.189,6.259,6.189
			c3.489,0,6.243-2.682,6.243-6.121C72.775,36.442,70.038,33.758,66.532,33.758z"/>
		<path fill="#001722" d="M30.997,33.977h-3.364v11.738h3.348c1.775,0,3.06-0.422,4.187-1.354c1.336-1.111,2.129-2.783,2.129-4.51
			C37.297,36.387,34.708,33.977,30.997,33.977z M33.673,42.794c-0.724,0.652-1.655,0.934-3.135,0.934h-0.615v-7.762h0.615
			c1.48,0,2.375,0.264,3.135,0.949c0.792,0.705,1.263,1.795,1.263,2.92C34.937,40.964,34.465,42.092,33.673,42.794z"/>
		<rect x="38.354" y="33.977" fill="#001722" width="2.288" height="11.738"/>
		<path fill="#001722" d="M46.24,38.479c-1.375-0.508-1.778-0.844-1.778-1.477c0-0.738,0.718-1.301,1.707-1.301
			c0.686,0,1.25,0.281,1.849,0.947l1.195-1.563c-0.986-0.865-2.165-1.305-3.45-1.305c-2.075,0-3.66,1.443-3.66,3.361
			c0,1.621,0.739,2.447,2.886,3.221c0.898,0.316,1.355,0.527,1.584,0.67c0.458,0.301,0.688,0.721,0.688,1.213
			c0,0.953-0.758,1.654-1.78,1.654c-1.091,0-1.97-0.543-2.498-1.564l-1.476,1.428c1.054,1.547,2.321,2.234,4.065,2.234
			c2.376,0,4.047-1.586,4.047-3.856C49.618,40.278,48.845,39.432,46.24,38.479z"/>
		<path fill="#001722" d="M50.338,39.852c0,3.453,2.712,6.127,6.196,6.127c0.987,0,1.831-0.193,2.871-0.686V42.6
			c-0.917,0.916-1.727,1.283-2.766,1.283c-2.305,0-3.943-1.672-3.943-4.049c0-2.25,1.689-4.029,3.838-4.029
			c1.089,0,1.918,0.389,2.871,1.32v-2.693c-1.003-0.51-1.833-0.719-2.817-0.719C53.12,33.714,50.338,36.442,50.338,39.852z"/>
		<polygon fill="#001722" points="77.955,41.862 74.821,33.977 72.322,33.977 77.304,46.016 78.536,46.016 83.605,33.977 
			81.124,33.977 		"/>
		<polygon fill="#001722" points="84.646,45.716 91.14,45.716 91.14,43.727 86.933,43.727 86.933,40.557 90.979,40.557 
			90.979,38.571 86.933,38.571 86.933,35.966 91.14,35.966 91.14,33.977 84.646,33.977 		"/>
		<path fill="#001722" d="M100.202,37.442c0-2.199-1.513-3.465-4.153-3.465h-3.398v11.738h2.29v-4.717h0.3l3.167,4.717h2.816
			l-3.698-4.945C99.252,40.419,100.202,39.239,100.202,37.442z M95.607,39.38H94.94v-3.557h0.704c1.428,0,2.203,0.601,2.203,1.742
			C97.847,38.745,97.072,39.38,95.607,39.38z"/>
		<path fill="#231F20" d="M101.817,34.852c0-0.205-0.138-0.318-0.39-0.318h-0.333v1.035h0.245v-0.402l0.289,0.402h0.308
			l-0.345-0.428C101.735,35.102,101.817,34.997,101.817,34.852z M101.384,34.993h-0.046v-0.268h0.049
			c0.121,0,0.183,0.043,0.183,0.131C101.57,34.946,101.505,34.993,101.384,34.993z"/>
		<path fill="#231F20" d="M101.475,34.145c-0.5,0-0.901,0.402-0.901,0.904c0,0.5,0.402,0.902,0.901,0.902
			c0.491,0,0.893-0.406,0.893-0.902C102.368,34.553,101.966,34.145,101.475,34.145z M101.474,35.79
			c-0.399,0-0.723-0.328-0.723-0.738c0-0.414,0.321-0.742,0.723-0.742c0.391,0,0.712,0.334,0.712,0.742
			C102.186,35.458,101.865,35.79,101.474,35.79z"/>
	</g>
</g>
<g>
	<path fill="#D2F0FF" stroke="#BABABA" stroke-miterlimit="10" d="M127.715,74.88c0,2.309-1.873,4.182-4.181,4.182H6.466
		c-2.308,0-4.181-1.873-4.181-4.182V4.848c0-2.311,1.874-4.182,4.181-4.182h117.068c2.308,0,4.181,1.871,4.181,4.182
		C127.715,4.848,127.715,74.88,127.715,74.88z"/>
	<path fill="#03A9F4" d="M76.241,34.705c-0.189-0.111-0.421-0.119-0.616-0.021s-0.327,0.289-0.351,0.507
		c-0.023,0.211-0.059,0.423-0.104,0.645c-1.262,5.728-3.797,8.514-7.751,8.514h-5.802c-0.306,0.001-0.569,0.216-0.63,0.516
		l-1.934,9.065l-0.346,2.308c-0.199,1.049,0.491,2.061,1.54,2.26c0.116,0.022,0.233,0.033,0.351,0.034h3.881
		c0.889,0.003,1.665-0.604,1.876-1.468l1.568-6.267h3.364c3.97,0,6.713-3.165,7.725-8.913l0,0
		C79.679,39.147,78.574,36.284,76.241,34.705z"/>
	<path fill="#283593" d="M75.025,29.887c-1.274-1.445-3.102-2.28-5.028-2.297H59.322c-1.598-0.009-2.958,1.16-3.19,2.741
		l-3.315,22.112c-0.159,1.056,0.569,2.041,1.625,2.2c0.096,0.014,0.193,0.022,0.29,0.021h4.951c0.306-0.001,0.569-0.216,0.63-0.516
		l1.824-8.509h5.286c4.587,0,7.618-3.206,9.011-9.54c0.056-0.252,0.099-0.508,0.129-0.765C76.886,33.38,76.323,31.384,75.025,29.887
		z"/>
</g>
</svg>
