<?xml version="1.0" encoding="utf-8"?>
<!-- Generator: Adobe Illustrator 23.0.3, SVG Export Plug-In . SVG Version: 6.00 Build 0)  -->
<svg version="1.1" id="Layer_1" xmlns="http://www.w3.org/2000/svg" xmlns:xlink="http://www.w3.org/1999/xlink" x="0px" y="0px"
	 viewBox="0 0 512 512" style="enable-background:new 0 0 512 512;" xml:space="preserve">
<style type="text/css">
	.st0{fill:none;stroke:#488AFF;stroke-width:32;stroke-linecap:round;stroke-linejoin:round;}
	.st1{fill:#488AFF;}
</style>
<path class="st0" d="M384,224v184c0,22.1-17.9,40-40,40H104c-22.1,0-40-17.9-40-40V168c0-22.1,17.9-40,40-40h167.5"/>
<path class="st1" d="M459.9,53.3c-6-6.6-16.1-7-22.7-1.1c0,0,0,0,0,0l-0.5,0.5L424.4,65c-3.1,3.1-3.1,8.2,0,11.3l11.3,11.3
	c3.1,3.1,8.2,3.1,11.3,0l0,0l12.1-12C465.2,69.5,465.8,59.6,459.9,53.3z"/>
<path class="st1" d="M399.3,90L218.8,270.2c-1.1,1.1-1.9,2.4-2.3,3.9l-8.4,24.9c-0.6,2.1,0.6,4.2,2.6,4.9c0,0,0,0,0,0
	c0.7,0.2,1.5,0.2,2.2,0l24.9-8.4c1.5-0.4,2.8-1.2,3.9-2.3L422,112.7c3.5-3.5,3.5-9.2,0-12.7l-10-10C408.5,86.5,402.9,86.5,399.3,90z
	"/>
</svg>
