<?xml version="1.0" encoding="utf-8"?>
<!-- Generator: Adobe Illustrator 23.0.3, SVG Export Plug-In . SVG Version: 6.00 Build 0)  -->
<svg version="1.1" id="Layer_1" xmlns="http://www.w3.org/2000/svg" xmlns:xlink="http://www.w3.org/1999/xlink" x="0px" y="0px"
	 viewBox="0 0 512 512" style="enable-background:new 0 0 512 512;" xml:space="preserve">
<style type="text/css">
	.st0{fill:none;stroke:#606060;stroke-width:32;stroke-linecap:round;stroke-linejoin:round;}
	.st1{fill:none;stroke:#606060;stroke-width:32;stroke-linecap:round;stroke-miterlimit:10;}
</style>
<path class="st0" d="M118,112l20,320c0.9,18.5,14.4,32,32,32h184c17.7,0,30.9-13.5,32-32l20-320"/>
<line class="st1" x1="86" y1="112" x2="438" y2="112"/>
<path class="st0" d="M198,112V72l0,0c0-13.2,10.6-24,23.9-24c0,0,0,0,0,0H302c13.2,0,24,10.6,24,23.9c0,0,0,0,0,0V72l0,0v40"/>
<line class="st0" x1="262" y1="176" x2="262" y2="400"/>
<line class="st0" x1="190" y1="176" x2="198" y2="400"/>
<line class="st0" x1="334" y1="176" x2="326" y2="400"/>
</svg>
